<mxfile host="app.diagrams.net" agent="Mozilla/5.0 (Windows NT 10.0; Win64; x64) AppleWebKit/537.36 (KHTML, like Gecko) Chrome/133.0.0.0 Safari/537.36" version="26.0.16">
  <diagram name="Page-1" id="kR_7lPQhMmrS7MMskV_w">
    <mxGraphModel dx="2896" dy="2644" grid="1" gridSize="10" guides="1" tooltips="1" connect="1" arrows="1" fold="1" page="1" pageScale="1" pageWidth="850" pageHeight="1100" math="0" shadow="0">
      <root>
        <mxCell id="0" />
        <mxCell id="1" parent="0" />
        <mxCell id="TG-YVFUVCGgv4PHO8d8e-1" value="" style="rounded=0;whiteSpace=wrap;html=1;fillColor=#2e7956;" vertex="1" parent="1">
          <mxGeometry x="-70" y="140" width="1240" height="260" as="geometry" />
        </mxCell>
        <mxCell id="TG-YVFUVCGgv4PHO8d8e-2" value="" style="rounded=0;whiteSpace=wrap;html=1;fillColor=#e5dc7b;" vertex="1" parent="1">
          <mxGeometry x="60" y="380" width="10" height="20" as="geometry" />
        </mxCell>
        <mxCell id="TG-YVFUVCGgv4PHO8d8e-3" value="" style="rounded=0;whiteSpace=wrap;html=1;fillColor=#e5dc7b;" vertex="1" parent="1">
          <mxGeometry x="70" y="380" width="10" height="20" as="geometry" />
        </mxCell>
        <mxCell id="TG-YVFUVCGgv4PHO8d8e-4" value="" style="rounded=0;whiteSpace=wrap;html=1;fillColor=#e5dc7b;" vertex="1" parent="1">
          <mxGeometry x="80" y="380" width="10" height="20" as="geometry" />
        </mxCell>
        <mxCell id="TG-YVFUVCGgv4PHO8d8e-5" value="" style="rounded=0;whiteSpace=wrap;html=1;fillColor=#e5dc7b;" vertex="1" parent="1">
          <mxGeometry x="90" y="380" width="10" height="20" as="geometry" />
        </mxCell>
        <mxCell id="TG-YVFUVCGgv4PHO8d8e-6" value="" style="rounded=0;whiteSpace=wrap;html=1;fillColor=#e5dc7b;" vertex="1" parent="1">
          <mxGeometry x="100" y="380" width="10" height="20" as="geometry" />
        </mxCell>
        <mxCell id="TG-YVFUVCGgv4PHO8d8e-7" value="" style="rounded=0;whiteSpace=wrap;html=1;fillColor=#e5dc7b;" vertex="1" parent="1">
          <mxGeometry x="110" y="380" width="10" height="20" as="geometry" />
        </mxCell>
        <mxCell id="TG-YVFUVCGgv4PHO8d8e-8" value="" style="rounded=0;whiteSpace=wrap;html=1;fillColor=#e5dc7b;" vertex="1" parent="1">
          <mxGeometry x="120" y="380" width="10" height="20" as="geometry" />
        </mxCell>
        <mxCell id="TG-YVFUVCGgv4PHO8d8e-9" value="" style="rounded=0;whiteSpace=wrap;html=1;fillColor=#e5dc7b;" vertex="1" parent="1">
          <mxGeometry x="130" y="380" width="10" height="20" as="geometry" />
        </mxCell>
        <mxCell id="TG-YVFUVCGgv4PHO8d8e-10" value="" style="rounded=0;whiteSpace=wrap;html=1;fillColor=#e5dc7b;" vertex="1" parent="1">
          <mxGeometry x="140" y="380" width="10" height="20" as="geometry" />
        </mxCell>
        <mxCell id="TG-YVFUVCGgv4PHO8d8e-11" value="" style="rounded=0;whiteSpace=wrap;html=1;fillColor=#e5dc7b;" vertex="1" parent="1">
          <mxGeometry x="150" y="380" width="10" height="20" as="geometry" />
        </mxCell>
        <mxCell id="TG-YVFUVCGgv4PHO8d8e-12" value="" style="rounded=0;whiteSpace=wrap;html=1;fillColor=#e5dc7b;" vertex="1" parent="1">
          <mxGeometry x="160" y="380" width="10" height="20" as="geometry" />
        </mxCell>
        <mxCell id="TG-YVFUVCGgv4PHO8d8e-13" value="" style="rounded=0;whiteSpace=wrap;html=1;fillColor=#e5dc7b;" vertex="1" parent="1">
          <mxGeometry x="170" y="380" width="10" height="20" as="geometry" />
        </mxCell>
        <mxCell id="TG-YVFUVCGgv4PHO8d8e-14" value="" style="rounded=0;whiteSpace=wrap;html=1;fillColor=#e5dc7b;" vertex="1" parent="1">
          <mxGeometry x="180" y="380" width="10" height="20" as="geometry" />
        </mxCell>
        <mxCell id="TG-YVFUVCGgv4PHO8d8e-15" value="" style="rounded=0;whiteSpace=wrap;html=1;fillColor=#e5dc7b;" vertex="1" parent="1">
          <mxGeometry x="190" y="380" width="10" height="20" as="geometry" />
        </mxCell>
        <mxCell id="TG-YVFUVCGgv4PHO8d8e-16" value="" style="rounded=0;whiteSpace=wrap;html=1;fillColor=#e5dc7b;" vertex="1" parent="1">
          <mxGeometry x="200" y="380" width="10" height="20" as="geometry" />
        </mxCell>
        <mxCell id="TG-YVFUVCGgv4PHO8d8e-17" value="" style="rounded=0;whiteSpace=wrap;html=1;fillColor=#e5dc7b;" vertex="1" parent="1">
          <mxGeometry x="210" y="380" width="10" height="20" as="geometry" />
        </mxCell>
        <mxCell id="TG-YVFUVCGgv4PHO8d8e-18" value="" style="rounded=0;whiteSpace=wrap;html=1;fillColor=#e5dc7b;" vertex="1" parent="1">
          <mxGeometry x="220" y="380" width="10" height="20" as="geometry" />
        </mxCell>
        <mxCell id="TG-YVFUVCGgv4PHO8d8e-19" value="" style="rounded=0;whiteSpace=wrap;html=1;fillColor=#e5dc7b;" vertex="1" parent="1">
          <mxGeometry x="230" y="380" width="10" height="20" as="geometry" />
        </mxCell>
        <mxCell id="TG-YVFUVCGgv4PHO8d8e-20" value="" style="rounded=0;whiteSpace=wrap;html=1;fillColor=#e5dc7b;" vertex="1" parent="1">
          <mxGeometry x="240" y="380" width="10" height="20" as="geometry" />
        </mxCell>
        <mxCell id="TG-YVFUVCGgv4PHO8d8e-21" value="" style="rounded=0;whiteSpace=wrap;html=1;fillColor=#e5dc7b;" vertex="1" parent="1">
          <mxGeometry x="250" y="380" width="10" height="20" as="geometry" />
        </mxCell>
        <mxCell id="TG-YVFUVCGgv4PHO8d8e-22" value="" style="rounded=0;whiteSpace=wrap;html=1;fillColor=#e5dc7b;" vertex="1" parent="1">
          <mxGeometry x="260" y="380" width="10" height="20" as="geometry" />
        </mxCell>
        <mxCell id="TG-YVFUVCGgv4PHO8d8e-23" value="" style="rounded=0;whiteSpace=wrap;html=1;fillColor=#e5dc7b;" vertex="1" parent="1">
          <mxGeometry x="270" y="380" width="10" height="20" as="geometry" />
        </mxCell>
        <mxCell id="TG-YVFUVCGgv4PHO8d8e-24" value="" style="rounded=0;whiteSpace=wrap;html=1;fillColor=#e5dc7b;" vertex="1" parent="1">
          <mxGeometry x="280" y="380" width="10" height="20" as="geometry" />
        </mxCell>
        <mxCell id="TG-YVFUVCGgv4PHO8d8e-25" value="" style="rounded=0;whiteSpace=wrap;html=1;fillColor=#e5dc7b;" vertex="1" parent="1">
          <mxGeometry x="290" y="380" width="10" height="20" as="geometry" />
        </mxCell>
        <mxCell id="TG-YVFUVCGgv4PHO8d8e-26" value="" style="rounded=0;whiteSpace=wrap;html=1;fillColor=#e5dc7b;" vertex="1" parent="1">
          <mxGeometry x="300" y="380" width="10" height="20" as="geometry" />
        </mxCell>
        <mxCell id="TG-YVFUVCGgv4PHO8d8e-27" value="" style="rounded=0;whiteSpace=wrap;html=1;fillColor=#e5dc7b;" vertex="1" parent="1">
          <mxGeometry x="310" y="380" width="10" height="20" as="geometry" />
        </mxCell>
        <mxCell id="TG-YVFUVCGgv4PHO8d8e-28" value="" style="rounded=0;whiteSpace=wrap;html=1;fillColor=#e5dc7b;" vertex="1" parent="1">
          <mxGeometry x="320" y="380" width="10" height="20" as="geometry" />
        </mxCell>
        <mxCell id="TG-YVFUVCGgv4PHO8d8e-29" value="" style="rounded=0;whiteSpace=wrap;html=1;fillColor=#e5dc7b;" vertex="1" parent="1">
          <mxGeometry x="330" y="380" width="10" height="20" as="geometry" />
        </mxCell>
        <mxCell id="TG-YVFUVCGgv4PHO8d8e-30" value="" style="rounded=0;whiteSpace=wrap;html=1;fillColor=#e5dc7b;" vertex="1" parent="1">
          <mxGeometry x="340" y="380" width="10" height="20" as="geometry" />
        </mxCell>
        <mxCell id="TG-YVFUVCGgv4PHO8d8e-31" value="" style="rounded=0;whiteSpace=wrap;html=1;fillColor=#e5dc7b;" vertex="1" parent="1">
          <mxGeometry x="350" y="380" width="10" height="20" as="geometry" />
        </mxCell>
        <mxCell id="TG-YVFUVCGgv4PHO8d8e-32" value="" style="rounded=0;whiteSpace=wrap;html=1;fillColor=#e5dc7b;" vertex="1" parent="1">
          <mxGeometry x="360" y="380" width="10" height="20" as="geometry" />
        </mxCell>
        <mxCell id="TG-YVFUVCGgv4PHO8d8e-33" value="" style="rounded=0;whiteSpace=wrap;html=1;fillColor=#e5dc7b;" vertex="1" parent="1">
          <mxGeometry x="370" y="380" width="10" height="20" as="geometry" />
        </mxCell>
        <mxCell id="TG-YVFUVCGgv4PHO8d8e-34" value="" style="rounded=0;whiteSpace=wrap;html=1;fillColor=#e5dc7b;" vertex="1" parent="1">
          <mxGeometry x="380" y="380" width="10" height="20" as="geometry" />
        </mxCell>
        <mxCell id="TG-YVFUVCGgv4PHO8d8e-35" value="" style="rounded=0;whiteSpace=wrap;html=1;fillColor=#e5dc7b;" vertex="1" parent="1">
          <mxGeometry x="390" y="380" width="10" height="20" as="geometry" />
        </mxCell>
        <mxCell id="TG-YVFUVCGgv4PHO8d8e-36" value="" style="rounded=0;whiteSpace=wrap;html=1;fillColor=#e5dc7b;" vertex="1" parent="1">
          <mxGeometry x="400" y="380" width="10" height="20" as="geometry" />
        </mxCell>
        <mxCell id="TG-YVFUVCGgv4PHO8d8e-37" value="" style="rounded=0;whiteSpace=wrap;html=1;fillColor=#e5dc7b;" vertex="1" parent="1">
          <mxGeometry x="410" y="380" width="10" height="20" as="geometry" />
        </mxCell>
        <mxCell id="TG-YVFUVCGgv4PHO8d8e-38" value="" style="rounded=0;whiteSpace=wrap;html=1;fillColor=#e5dc7b;" vertex="1" parent="1">
          <mxGeometry x="420" y="380" width="10" height="20" as="geometry" />
        </mxCell>
        <mxCell id="TG-YVFUVCGgv4PHO8d8e-39" value="" style="rounded=0;whiteSpace=wrap;html=1;fillColor=#e5dc7b;" vertex="1" parent="1">
          <mxGeometry x="430" y="380" width="10" height="20" as="geometry" />
        </mxCell>
        <mxCell id="TG-YVFUVCGgv4PHO8d8e-40" value="" style="rounded=0;whiteSpace=wrap;html=1;fillColor=#e5dc7b;" vertex="1" parent="1">
          <mxGeometry x="660" y="380" width="10" height="20" as="geometry" />
        </mxCell>
        <mxCell id="TG-YVFUVCGgv4PHO8d8e-41" value="" style="rounded=0;whiteSpace=wrap;html=1;fillColor=#e5dc7b;" vertex="1" parent="1">
          <mxGeometry x="676" y="380" width="10" height="20" as="geometry" />
        </mxCell>
        <mxCell id="TG-YVFUVCGgv4PHO8d8e-42" value="" style="rounded=0;whiteSpace=wrap;html=1;fillColor=#e5dc7b;" vertex="1" parent="1">
          <mxGeometry x="686" y="380" width="10" height="20" as="geometry" />
        </mxCell>
        <mxCell id="TG-YVFUVCGgv4PHO8d8e-43" value="" style="rounded=0;whiteSpace=wrap;html=1;fillColor=#e5dc7b;" vertex="1" parent="1">
          <mxGeometry x="696" y="380" width="10" height="20" as="geometry" />
        </mxCell>
        <mxCell id="TG-YVFUVCGgv4PHO8d8e-44" value="" style="rounded=0;whiteSpace=wrap;html=1;fillColor=#e5dc7b;" vertex="1" parent="1">
          <mxGeometry x="706" y="380" width="10" height="20" as="geometry" />
        </mxCell>
        <mxCell id="TG-YVFUVCGgv4PHO8d8e-45" value="" style="rounded=0;whiteSpace=wrap;html=1;fillColor=#e5dc7b;" vertex="1" parent="1">
          <mxGeometry x="716" y="380" width="10" height="20" as="geometry" />
        </mxCell>
        <mxCell id="TG-YVFUVCGgv4PHO8d8e-46" value="" style="rounded=0;whiteSpace=wrap;html=1;fillColor=#e5dc7b;" vertex="1" parent="1">
          <mxGeometry x="726" y="380" width="10" height="20" as="geometry" />
        </mxCell>
        <mxCell id="TG-YVFUVCGgv4PHO8d8e-47" value="" style="rounded=0;whiteSpace=wrap;html=1;fillColor=#e5dc7b;" vertex="1" parent="1">
          <mxGeometry x="736" y="380" width="10" height="20" as="geometry" />
        </mxCell>
        <mxCell id="TG-YVFUVCGgv4PHO8d8e-48" value="" style="rounded=0;whiteSpace=wrap;html=1;fillColor=#e5dc7b;" vertex="1" parent="1">
          <mxGeometry x="746" y="380" width="10" height="20" as="geometry" />
        </mxCell>
        <mxCell id="TG-YVFUVCGgv4PHO8d8e-49" value="" style="rounded=0;whiteSpace=wrap;html=1;fillColor=#e5dc7b;" vertex="1" parent="1">
          <mxGeometry x="756" y="380" width="10" height="20" as="geometry" />
        </mxCell>
        <mxCell id="TG-YVFUVCGgv4PHO8d8e-50" value="" style="rounded=0;whiteSpace=wrap;html=1;fillColor=#e5dc7b;" vertex="1" parent="1">
          <mxGeometry x="766" y="380" width="10" height="20" as="geometry" />
        </mxCell>
        <mxCell id="TG-YVFUVCGgv4PHO8d8e-51" value="" style="rounded=0;whiteSpace=wrap;html=1;fillColor=#e5dc7b;" vertex="1" parent="1">
          <mxGeometry x="776" y="380" width="10" height="20" as="geometry" />
        </mxCell>
        <mxCell id="TG-YVFUVCGgv4PHO8d8e-52" value="" style="rounded=0;whiteSpace=wrap;html=1;fillColor=#e5dc7b;" vertex="1" parent="1">
          <mxGeometry x="786" y="380" width="10" height="20" as="geometry" />
        </mxCell>
        <mxCell id="TG-YVFUVCGgv4PHO8d8e-53" value="" style="rounded=0;whiteSpace=wrap;html=1;fillColor=#e5dc7b;" vertex="1" parent="1">
          <mxGeometry x="796" y="380" width="10" height="20" as="geometry" />
        </mxCell>
        <mxCell id="TG-YVFUVCGgv4PHO8d8e-54" value="" style="rounded=0;whiteSpace=wrap;html=1;fillColor=#e5dc7b;" vertex="1" parent="1">
          <mxGeometry x="806" y="380" width="10" height="20" as="geometry" />
        </mxCell>
        <mxCell id="TG-YVFUVCGgv4PHO8d8e-55" value="" style="rounded=0;whiteSpace=wrap;html=1;fillColor=#e5dc7b;" vertex="1" parent="1">
          <mxGeometry x="816" y="380" width="10" height="20" as="geometry" />
        </mxCell>
        <mxCell id="TG-YVFUVCGgv4PHO8d8e-56" value="" style="rounded=0;whiteSpace=wrap;html=1;fillColor=#e5dc7b;" vertex="1" parent="1">
          <mxGeometry x="826" y="380" width="10" height="20" as="geometry" />
        </mxCell>
        <mxCell id="TG-YVFUVCGgv4PHO8d8e-57" value="" style="rounded=0;whiteSpace=wrap;html=1;fillColor=#e5dc7b;" vertex="1" parent="1">
          <mxGeometry x="836" y="380" width="10" height="20" as="geometry" />
        </mxCell>
        <mxCell id="TG-YVFUVCGgv4PHO8d8e-58" value="" style="rounded=0;whiteSpace=wrap;html=1;fillColor=#e5dc7b;" vertex="1" parent="1">
          <mxGeometry x="846" y="380" width="10" height="20" as="geometry" />
        </mxCell>
        <mxCell id="TG-YVFUVCGgv4PHO8d8e-59" value="" style="rounded=0;whiteSpace=wrap;html=1;fillColor=#e5dc7b;" vertex="1" parent="1">
          <mxGeometry x="856" y="380" width="10" height="20" as="geometry" />
        </mxCell>
        <mxCell id="TG-YVFUVCGgv4PHO8d8e-60" value="" style="rounded=0;whiteSpace=wrap;html=1;fillColor=#e5dc7b;" vertex="1" parent="1">
          <mxGeometry x="866" y="380" width="10" height="20" as="geometry" />
        </mxCell>
        <mxCell id="TG-YVFUVCGgv4PHO8d8e-61" value="" style="rounded=0;whiteSpace=wrap;html=1;fillColor=#e5dc7b;" vertex="1" parent="1">
          <mxGeometry x="876" y="380" width="10" height="20" as="geometry" />
        </mxCell>
        <mxCell id="TG-YVFUVCGgv4PHO8d8e-62" value="" style="rounded=0;whiteSpace=wrap;html=1;fillColor=#e5dc7b;" vertex="1" parent="1">
          <mxGeometry x="886" y="380" width="10" height="20" as="geometry" />
        </mxCell>
        <mxCell id="TG-YVFUVCGgv4PHO8d8e-63" value="" style="rounded=0;whiteSpace=wrap;html=1;fillColor=#e5dc7b;" vertex="1" parent="1">
          <mxGeometry x="896" y="380" width="10" height="20" as="geometry" />
        </mxCell>
        <mxCell id="TG-YVFUVCGgv4PHO8d8e-64" value="" style="rounded=0;whiteSpace=wrap;html=1;fillColor=#e5dc7b;" vertex="1" parent="1">
          <mxGeometry x="906" y="380" width="10" height="20" as="geometry" />
        </mxCell>
        <mxCell id="TG-YVFUVCGgv4PHO8d8e-65" value="" style="rounded=0;whiteSpace=wrap;html=1;fillColor=#e5dc7b;" vertex="1" parent="1">
          <mxGeometry x="916" y="380" width="10" height="20" as="geometry" />
        </mxCell>
        <mxCell id="TG-YVFUVCGgv4PHO8d8e-66" value="" style="rounded=0;whiteSpace=wrap;html=1;fillColor=#e5dc7b;" vertex="1" parent="1">
          <mxGeometry x="926" y="380" width="10" height="20" as="geometry" />
        </mxCell>
        <mxCell id="TG-YVFUVCGgv4PHO8d8e-67" value="" style="rounded=0;whiteSpace=wrap;html=1;fillColor=#e5dc7b;" vertex="1" parent="1">
          <mxGeometry x="936" y="380" width="10" height="20" as="geometry" />
        </mxCell>
        <mxCell id="TG-YVFUVCGgv4PHO8d8e-68" value="" style="rounded=0;whiteSpace=wrap;html=1;fillColor=#e5dc7b;" vertex="1" parent="1">
          <mxGeometry x="946" y="380" width="10" height="20" as="geometry" />
        </mxCell>
        <mxCell id="TG-YVFUVCGgv4PHO8d8e-69" value="" style="rounded=0;whiteSpace=wrap;html=1;fillColor=#e5dc7b;" vertex="1" parent="1">
          <mxGeometry x="956" y="380" width="10" height="20" as="geometry" />
        </mxCell>
        <mxCell id="TG-YVFUVCGgv4PHO8d8e-70" value="" style="rounded=0;whiteSpace=wrap;html=1;fillColor=#e5dc7b;" vertex="1" parent="1">
          <mxGeometry x="966" y="380" width="10" height="20" as="geometry" />
        </mxCell>
        <mxCell id="TG-YVFUVCGgv4PHO8d8e-71" value="" style="rounded=0;whiteSpace=wrap;html=1;fillColor=#e5dc7b;" vertex="1" parent="1">
          <mxGeometry x="976" y="380" width="10" height="20" as="geometry" />
        </mxCell>
        <mxCell id="TG-YVFUVCGgv4PHO8d8e-72" value="" style="rounded=0;whiteSpace=wrap;html=1;fillColor=#e5dc7b;" vertex="1" parent="1">
          <mxGeometry x="986" y="380" width="10" height="20" as="geometry" />
        </mxCell>
        <mxCell id="TG-YVFUVCGgv4PHO8d8e-73" value="" style="rounded=0;whiteSpace=wrap;html=1;fillColor=#e5dc7b;" vertex="1" parent="1">
          <mxGeometry x="996" y="380" width="10" height="20" as="geometry" />
        </mxCell>
        <mxCell id="TG-YVFUVCGgv4PHO8d8e-74" value="" style="rounded=0;whiteSpace=wrap;html=1;fillColor=#e5dc7b;" vertex="1" parent="1">
          <mxGeometry x="1006" y="380" width="10" height="20" as="geometry" />
        </mxCell>
        <mxCell id="TG-YVFUVCGgv4PHO8d8e-75" value="" style="rounded=0;whiteSpace=wrap;html=1;fillColor=#e5dc7b;" vertex="1" parent="1">
          <mxGeometry x="1016" y="380" width="10" height="20" as="geometry" />
        </mxCell>
        <mxCell id="TG-YVFUVCGgv4PHO8d8e-76" value="" style="rounded=0;whiteSpace=wrap;html=1;fillColor=#e5dc7b;" vertex="1" parent="1">
          <mxGeometry x="1026" y="380" width="10" height="20" as="geometry" />
        </mxCell>
        <mxCell id="TG-YVFUVCGgv4PHO8d8e-77" value="" style="rounded=0;whiteSpace=wrap;html=1;fillColor=#e5dc7b;" vertex="1" parent="1">
          <mxGeometry x="1036" y="380" width="10" height="20" as="geometry" />
        </mxCell>
        <mxCell id="TG-YVFUVCGgv4PHO8d8e-78" value="" style="rounded=0;whiteSpace=wrap;html=1;fillColor=#e5dc7b;" vertex="1" parent="1">
          <mxGeometry x="1046" y="380" width="10" height="20" as="geometry" />
        </mxCell>
        <mxCell id="TG-YVFUVCGgv4PHO8d8e-79" value="" style="shape=or;whiteSpace=wrap;html=1;direction=north;" vertex="1" parent="1">
          <mxGeometry x="540" y="370" width="20" height="30" as="geometry" />
        </mxCell>
        <mxCell id="TG-YVFUVCGgv4PHO8d8e-80" value="" style="rounded=0;whiteSpace=wrap;html=1;fillColor=#e5dc7b;" vertex="1" parent="1">
          <mxGeometry x="670" y="380" width="10" height="20" as="geometry" />
        </mxCell>
        <mxCell id="TG-YVFUVCGgv4PHO8d8e-81" value="" style="rounded=0;whiteSpace=wrap;html=1;fillColor=#e5dc7b;" vertex="1" parent="1">
          <mxGeometry x="680" y="380" width="10" height="20" as="geometry" />
        </mxCell>
        <mxCell id="TG-YVFUVCGgv4PHO8d8e-82" value="" style="rounded=0;whiteSpace=wrap;html=1;fillColor=#e5dc7b;" vertex="1" parent="1">
          <mxGeometry x="690" y="380" width="10" height="20" as="geometry" />
        </mxCell>
        <mxCell id="TG-YVFUVCGgv4PHO8d8e-83" value="" style="rounded=0;whiteSpace=wrap;html=1;fillColor=#e5dc7b;" vertex="1" parent="1">
          <mxGeometry x="440" y="380" width="10" height="20" as="geometry" />
        </mxCell>
        <mxCell id="TG-YVFUVCGgv4PHO8d8e-84" style="edgeStyle=orthogonalEdgeStyle;rounded=0;orthogonalLoop=1;jettySize=auto;html=1;exitX=0.25;exitY=1;exitDx=0;exitDy=0;entryX=1;entryY=0.5;entryDx=0;entryDy=0;strokeWidth=2;strokeColor=#6c8ebf;endArrow=none;endFill=0;fillColor=#dae8fc;" edge="1" parent="1">
          <mxGeometry relative="1" as="geometry">
            <mxPoint x="447" y="198.25" as="sourcePoint" />
            <mxPoint x="7" y="183.75" as="targetPoint" />
            <Array as="points">
              <mxPoint x="407" y="198.75" />
              <mxPoint x="407" y="183.75" />
            </Array>
          </mxGeometry>
        </mxCell>
        <mxCell id="TG-YVFUVCGgv4PHO8d8e-85" style="edgeStyle=orthogonalEdgeStyle;rounded=0;orthogonalLoop=1;jettySize=auto;html=1;exitX=0.75;exitY=1;exitDx=0;exitDy=0;strokeWidth=2;strokeColor=#6c8ebf;endArrow=none;endFill=0;fillColor=#dae8fc;" edge="1" parent="1">
          <mxGeometry relative="1" as="geometry">
            <mxPoint x="450" y="307.5" as="sourcePoint" />
            <mxPoint x="10" y="320" as="targetPoint" />
            <Array as="points">
              <mxPoint x="410" y="307" />
              <mxPoint x="410" y="320" />
            </Array>
          </mxGeometry>
        </mxCell>
        <mxCell id="TG-YVFUVCGgv4PHO8d8e-86" style="edgeStyle=orthogonalEdgeStyle;rounded=0;orthogonalLoop=1;jettySize=auto;html=1;exitX=0.25;exitY=0;exitDx=0;exitDy=0;strokeWidth=2;strokeColor=#82b366;endArrow=none;endFill=0;fillColor=#d5e8d4;" edge="1" parent="1">
          <mxGeometry relative="1" as="geometry">
            <mxPoint x="650" y="201.5" as="sourcePoint" />
            <mxPoint x="1091" y="187" as="targetPoint" />
            <Array as="points">
              <mxPoint x="690" y="202" />
              <mxPoint x="690" y="187" />
            </Array>
          </mxGeometry>
        </mxCell>
        <mxCell id="TG-YVFUVCGgv4PHO8d8e-87" value="&lt;font style=&quot;font-size: 14px;&quot; color=&quot;#ababab&quot;&gt;&lt;b&gt;RCD&lt;/b&gt;&lt;/font&gt;" style="rounded=0;whiteSpace=wrap;html=1;strokeColor=#454744;fillColor=#464646;direction=south;" vertex="1" parent="1">
          <mxGeometry x="450" y="190" width="200" height="130" as="geometry" />
        </mxCell>
        <mxCell id="TG-YVFUVCGgv4PHO8d8e-88" value="" style="endArrow=classic;html=1;rounded=0;strokeWidth=4;fillColor=#ffe6cc;strokeColor=#d79b00;" edge="1" parent="1">
          <mxGeometry width="50" height="50" relative="1" as="geometry">
            <mxPoint x="484.66" y="450" as="sourcePoint" />
            <mxPoint x="484.66" y="320" as="targetPoint" />
          </mxGeometry>
        </mxCell>
        <mxCell id="TG-YVFUVCGgv4PHO8d8e-89" value="" style="endArrow=classic;html=1;rounded=0;strokeWidth=4;fillColor=#dae8fc;strokeColor=#6c8ebf;" edge="1" parent="1">
          <mxGeometry width="50" height="50" relative="1" as="geometry">
            <mxPoint x="581" y="450" as="sourcePoint" />
            <mxPoint x="581" y="320" as="targetPoint" />
          </mxGeometry>
        </mxCell>
        <mxCell id="TG-YVFUVCGgv4PHO8d8e-90" value="DCK" style="text;html=1;align=center;verticalAlign=middle;whiteSpace=wrap;rounded=0;fontColor=#d79b00;fontStyle=1;fontSize=14;" vertex="1" parent="1">
          <mxGeometry x="470" y="450" width="35" height="20" as="geometry" />
        </mxCell>
        <mxCell id="TG-YVFUVCGgv4PHO8d8e-91" value="" style="endArrow=classic;html=1;rounded=0;exitX=1;exitY=1;exitDx=0;exitDy=0;strokeWidth=4;fillColor=#f8cecc;strokeColor=#b85450;" edge="1" parent="1">
          <mxGeometry width="50" height="50" relative="1" as="geometry">
            <mxPoint x="606" y="480" as="sourcePoint" />
            <mxPoint x="606" y="320" as="targetPoint" />
          </mxGeometry>
        </mxCell>
        <mxCell id="TG-YVFUVCGgv4PHO8d8e-92" value="" style="endArrow=classic;html=1;rounded=0;strokeWidth=4;fillColor=#d5e8d4;strokeColor=#82b366;" edge="1" parent="1">
          <mxGeometry width="50" height="50" relative="1" as="geometry">
            <mxPoint x="630" y="510" as="sourcePoint" />
            <mxPoint x="630.31" y="320" as="targetPoint" />
          </mxGeometry>
        </mxCell>
        <mxCell id="TG-YVFUVCGgv4PHO8d8e-93" value="" style="endArrow=classic;html=1;rounded=0;strokeWidth=4;fillColor=#e1d5e7;strokeColor=#9673a6;" edge="1" parent="1">
          <mxGeometry width="50" height="50" relative="1" as="geometry">
            <mxPoint x="650" y="550" as="sourcePoint" />
            <mxPoint x="650.31" y="320" as="targetPoint" />
          </mxGeometry>
        </mxCell>
        <mxCell id="TG-YVFUVCGgv4PHO8d8e-94" value="&lt;div&gt;&lt;span style=&quot;background-color: initial;&quot;&gt;DCS1_B_n&lt;/span&gt;&lt;br&gt;&lt;/div&gt;" style="text;html=1;align=center;verticalAlign=middle;whiteSpace=wrap;rounded=0;fontColor=#9673a6;fontStyle=1;fontSize=14;" vertex="1" parent="1">
          <mxGeometry x="603" y="550" width="90" height="20" as="geometry" />
        </mxCell>
        <mxCell id="TG-YVFUVCGgv4PHO8d8e-95" value="RCD and RDIMM shown enlarged for ease of explaining" style="text;html=1;align=center;verticalAlign=middle;whiteSpace=wrap;rounded=0;" vertex="1" parent="1">
          <mxGeometry x="850" y="110" width="320" height="30" as="geometry" />
        </mxCell>
        <mxCell id="TG-YVFUVCGgv4PHO8d8e-96" value="" style="rounded=0;whiteSpace=wrap;html=1;fillColor=#e5dc7b;" vertex="1" parent="1">
          <mxGeometry x="-60" y="380" width="10" height="20" as="geometry" />
        </mxCell>
        <mxCell id="TG-YVFUVCGgv4PHO8d8e-97" value="" style="rounded=0;whiteSpace=wrap;html=1;fillColor=#e5dc7b;" vertex="1" parent="1">
          <mxGeometry x="-50" y="380" width="10" height="20" as="geometry" />
        </mxCell>
        <mxCell id="TG-YVFUVCGgv4PHO8d8e-98" value="" style="rounded=0;whiteSpace=wrap;html=1;fillColor=#e5dc7b;" vertex="1" parent="1">
          <mxGeometry x="-40" y="380" width="10" height="20" as="geometry" />
        </mxCell>
        <mxCell id="TG-YVFUVCGgv4PHO8d8e-99" value="" style="rounded=0;whiteSpace=wrap;html=1;fillColor=#e5dc7b;" vertex="1" parent="1">
          <mxGeometry x="-30" y="380" width="10" height="20" as="geometry" />
        </mxCell>
        <mxCell id="TG-YVFUVCGgv4PHO8d8e-100" value="" style="rounded=0;whiteSpace=wrap;html=1;fillColor=#e5dc7b;" vertex="1" parent="1">
          <mxGeometry x="-20" y="380" width="10" height="20" as="geometry" />
        </mxCell>
        <mxCell id="TG-YVFUVCGgv4PHO8d8e-101" value="" style="rounded=0;whiteSpace=wrap;html=1;fillColor=#e5dc7b;" vertex="1" parent="1">
          <mxGeometry x="-10" y="380" width="10" height="20" as="geometry" />
        </mxCell>
        <mxCell id="TG-YVFUVCGgv4PHO8d8e-102" value="" style="rounded=0;whiteSpace=wrap;html=1;fillColor=#e5dc7b;" vertex="1" parent="1">
          <mxGeometry y="380" width="10" height="20" as="geometry" />
        </mxCell>
        <mxCell id="TG-YVFUVCGgv4PHO8d8e-103" value="" style="rounded=0;whiteSpace=wrap;html=1;fillColor=#e5dc7b;" vertex="1" parent="1">
          <mxGeometry x="10" y="380" width="10" height="20" as="geometry" />
        </mxCell>
        <mxCell id="TG-YVFUVCGgv4PHO8d8e-104" value="" style="rounded=0;whiteSpace=wrap;html=1;fillColor=#e5dc7b;" vertex="1" parent="1">
          <mxGeometry x="20" y="380" width="10" height="20" as="geometry" />
        </mxCell>
        <mxCell id="TG-YVFUVCGgv4PHO8d8e-105" value="" style="rounded=0;whiteSpace=wrap;html=1;fillColor=#e5dc7b;" vertex="1" parent="1">
          <mxGeometry x="30" y="380" width="10" height="20" as="geometry" />
        </mxCell>
        <mxCell id="TG-YVFUVCGgv4PHO8d8e-106" value="" style="rounded=0;whiteSpace=wrap;html=1;fillColor=#e5dc7b;" vertex="1" parent="1">
          <mxGeometry x="40" y="380" width="10" height="20" as="geometry" />
        </mxCell>
        <mxCell id="TG-YVFUVCGgv4PHO8d8e-107" value="" style="rounded=0;whiteSpace=wrap;html=1;fillColor=#e5dc7b;" vertex="1" parent="1">
          <mxGeometry x="50" y="380" width="10" height="20" as="geometry" />
        </mxCell>
        <mxCell id="TG-YVFUVCGgv4PHO8d8e-108" value="" style="rounded=0;whiteSpace=wrap;html=1;fillColor=#e5dc7b;" vertex="1" parent="1">
          <mxGeometry x="1056" y="380" width="10" height="20" as="geometry" />
        </mxCell>
        <mxCell id="TG-YVFUVCGgv4PHO8d8e-109" value="" style="rounded=0;whiteSpace=wrap;html=1;fillColor=#e5dc7b;" vertex="1" parent="1">
          <mxGeometry x="1066" y="380" width="10" height="20" as="geometry" />
        </mxCell>
        <mxCell id="TG-YVFUVCGgv4PHO8d8e-110" value="" style="rounded=0;whiteSpace=wrap;html=1;fillColor=#e5dc7b;" vertex="1" parent="1">
          <mxGeometry x="1076" y="380" width="10" height="20" as="geometry" />
        </mxCell>
        <mxCell id="TG-YVFUVCGgv4PHO8d8e-111" value="" style="rounded=0;whiteSpace=wrap;html=1;fillColor=#e5dc7b;" vertex="1" parent="1">
          <mxGeometry x="1086" y="380" width="10" height="20" as="geometry" />
        </mxCell>
        <mxCell id="TG-YVFUVCGgv4PHO8d8e-112" value="" style="rounded=0;whiteSpace=wrap;html=1;fillColor=#e5dc7b;" vertex="1" parent="1">
          <mxGeometry x="1096" y="380" width="10" height="20" as="geometry" />
        </mxCell>
        <mxCell id="TG-YVFUVCGgv4PHO8d8e-113" value="" style="rounded=0;whiteSpace=wrap;html=1;fillColor=#e5dc7b;" vertex="1" parent="1">
          <mxGeometry x="1106" y="380" width="10" height="20" as="geometry" />
        </mxCell>
        <mxCell id="TG-YVFUVCGgv4PHO8d8e-114" value="" style="rounded=0;whiteSpace=wrap;html=1;fillColor=#e5dc7b;" vertex="1" parent="1">
          <mxGeometry x="1116" y="380" width="10" height="20" as="geometry" />
        </mxCell>
        <mxCell id="TG-YVFUVCGgv4PHO8d8e-115" value="" style="rounded=0;whiteSpace=wrap;html=1;fillColor=#e5dc7b;" vertex="1" parent="1">
          <mxGeometry x="1126" y="380" width="10" height="20" as="geometry" />
        </mxCell>
        <mxCell id="TG-YVFUVCGgv4PHO8d8e-116" value="" style="rounded=0;whiteSpace=wrap;html=1;fillColor=#e5dc7b;" vertex="1" parent="1">
          <mxGeometry x="1136" y="380" width="10" height="20" as="geometry" />
        </mxCell>
        <mxCell id="TG-YVFUVCGgv4PHO8d8e-117" value="" style="rounded=0;whiteSpace=wrap;html=1;fillColor=#e5dc7b;" vertex="1" parent="1">
          <mxGeometry x="1146" y="380" width="10" height="20" as="geometry" />
        </mxCell>
        <mxCell id="TG-YVFUVCGgv4PHO8d8e-118" value="&lt;span style=&quot;font-family: Helvetica; font-size: 14px; font-style: normal; font-variant-ligatures: normal; font-variant-caps: normal; font-weight: 700; letter-spacing: normal; orphans: 2; text-align: center; text-indent: 0px; text-transform: none; widows: 2; word-spacing: 0px; -webkit-text-stroke-width: 0px; white-space: normal; background-color: rgb(251, 251, 251); text-decoration-thickness: initial; text-decoration-style: initial; text-decoration-color: initial; float: none; display: inline !important;&quot;&gt;DCS0_A_n&lt;/span&gt;" style="text;whiteSpace=wrap;html=1;fontColor=#6c8ebf;" vertex="1" parent="1">
          <mxGeometry x="528" y="450" width="80" height="30" as="geometry" />
        </mxCell>
        <mxCell id="TG-YVFUVCGgv4PHO8d8e-119" value="&lt;span style=&quot;color: rgb(184, 84, 80); font-family: Helvetica; font-size: 14px; font-style: normal; font-variant-ligatures: normal; font-variant-caps: normal; font-weight: 700; letter-spacing: normal; orphans: 2; text-align: center; text-indent: 0px; text-transform: none; widows: 2; word-spacing: 0px; -webkit-text-stroke-width: 0px; white-space: normal; background-color: rgb(251, 251, 251); text-decoration-thickness: initial; text-decoration-style: initial; text-decoration-color: initial; display: inline !important; float: none;&quot;&gt;DCS1_A_n&lt;/span&gt;" style="text;whiteSpace=wrap;html=1;" vertex="1" parent="1">
          <mxGeometry x="551" y="480" width="80" height="20" as="geometry" />
        </mxCell>
        <mxCell id="TG-YVFUVCGgv4PHO8d8e-120" value="&lt;span style=&quot;font-family: Helvetica; font-size: 14px; font-style: normal; font-variant-ligatures: normal; font-variant-caps: normal; font-weight: 700; letter-spacing: normal; orphans: 2; text-align: center; text-indent: 0px; text-transform: none; widows: 2; word-spacing: 0px; -webkit-text-stroke-width: 0px; white-space: normal; background-color: rgb(251, 251, 251); text-decoration-thickness: initial; text-decoration-style: initial; text-decoration-color: initial; float: none; display: inline !important;&quot;&gt;DCS0_B_n&lt;/span&gt;" style="text;whiteSpace=wrap;html=1;fontColor=#82b366;" vertex="1" parent="1">
          <mxGeometry x="574" y="510" width="80" height="30" as="geometry" />
        </mxCell>
        <mxCell id="TG-YVFUVCGgv4PHO8d8e-121" style="edgeStyle=orthogonalEdgeStyle;rounded=0;orthogonalLoop=1;jettySize=auto;html=1;exitX=0.25;exitY=0;exitDx=0;exitDy=0;strokeWidth=2;strokeColor=#82b366;endArrow=none;endFill=0;entryX=0;entryY=0.5;entryDx=0;entryDy=0;fillColor=#d5e8d4;" edge="1" parent="1">
          <mxGeometry relative="1" as="geometry">
            <mxPoint x="650" y="310" as="sourcePoint" />
            <mxPoint x="1091" y="323" as="targetPoint" />
            <Array as="points">
              <mxPoint x="690" y="310" />
              <mxPoint x="690" y="323" />
            </Array>
          </mxGeometry>
        </mxCell>
        <mxCell id="TG-YVFUVCGgv4PHO8d8e-122" value="QACS0_A" style="text;html=1;align=center;verticalAlign=middle;whiteSpace=wrap;rounded=0;fontColor=#6c8ebf;" vertex="1" parent="1">
          <mxGeometry x="345" y="316" width="60" height="30" as="geometry" />
        </mxCell>
        <mxCell id="TG-YVFUVCGgv4PHO8d8e-123" value="QBCS0_A" style="text;html=1;align=center;verticalAlign=middle;whiteSpace=wrap;rounded=0;fontColor=#6c8ebf;" vertex="1" parent="1">
          <mxGeometry x="340" y="158" width="60" height="30" as="geometry" />
        </mxCell>
        <mxCell id="TG-YVFUVCGgv4PHO8d8e-124" value="QACS0_B" style="text;html=1;align=center;verticalAlign=middle;whiteSpace=wrap;rounded=0;fontColor=#82b366;" vertex="1" parent="1">
          <mxGeometry x="701" y="319" width="60" height="30" as="geometry" />
        </mxCell>
        <mxCell id="TG-YVFUVCGgv4PHO8d8e-125" value="QBCS0_B" style="text;html=1;align=center;verticalAlign=middle;whiteSpace=wrap;rounded=0;fontColor=#82b366;" vertex="1" parent="1">
          <mxGeometry x="698" y="161" width="60" height="30" as="geometry" />
        </mxCell>
        <mxCell id="TG-YVFUVCGgv4PHO8d8e-126" value="" style="rounded=0;whiteSpace=wrap;html=1;fillColor=#2e7956;" vertex="1" parent="1">
          <mxGeometry x="-70" y="630" width="1240" height="260" as="geometry" />
        </mxCell>
        <mxCell id="TG-YVFUVCGgv4PHO8d8e-127" value="" style="rounded=0;whiteSpace=wrap;html=1;fillColor=#e5dc7b;" vertex="1" parent="1">
          <mxGeometry x="62" y="630" width="10" height="20" as="geometry" />
        </mxCell>
        <mxCell id="TG-YVFUVCGgv4PHO8d8e-128" value="" style="rounded=0;whiteSpace=wrap;html=1;fillColor=#e5dc7b;" vertex="1" parent="1">
          <mxGeometry x="72" y="630" width="10" height="20" as="geometry" />
        </mxCell>
        <mxCell id="TG-YVFUVCGgv4PHO8d8e-129" value="" style="rounded=0;whiteSpace=wrap;html=1;fillColor=#e5dc7b;" vertex="1" parent="1">
          <mxGeometry x="82" y="630" width="10" height="20" as="geometry" />
        </mxCell>
        <mxCell id="TG-YVFUVCGgv4PHO8d8e-130" value="" style="rounded=0;whiteSpace=wrap;html=1;fillColor=#e5dc7b;" vertex="1" parent="1">
          <mxGeometry x="92" y="630" width="10" height="20" as="geometry" />
        </mxCell>
        <mxCell id="TG-YVFUVCGgv4PHO8d8e-131" value="" style="rounded=0;whiteSpace=wrap;html=1;fillColor=#e5dc7b;" vertex="1" parent="1">
          <mxGeometry x="102" y="630" width="10" height="20" as="geometry" />
        </mxCell>
        <mxCell id="TG-YVFUVCGgv4PHO8d8e-132" value="" style="rounded=0;whiteSpace=wrap;html=1;fillColor=#e5dc7b;" vertex="1" parent="1">
          <mxGeometry x="112" y="630" width="10" height="20" as="geometry" />
        </mxCell>
        <mxCell id="TG-YVFUVCGgv4PHO8d8e-133" value="" style="rounded=0;whiteSpace=wrap;html=1;fillColor=#e5dc7b;" vertex="1" parent="1">
          <mxGeometry x="122" y="630" width="10" height="20" as="geometry" />
        </mxCell>
        <mxCell id="TG-YVFUVCGgv4PHO8d8e-134" value="" style="rounded=0;whiteSpace=wrap;html=1;fillColor=#e5dc7b;" vertex="1" parent="1">
          <mxGeometry x="132" y="630" width="10" height="20" as="geometry" />
        </mxCell>
        <mxCell id="TG-YVFUVCGgv4PHO8d8e-135" value="" style="rounded=0;whiteSpace=wrap;html=1;fillColor=#e5dc7b;" vertex="1" parent="1">
          <mxGeometry x="142" y="630" width="10" height="20" as="geometry" />
        </mxCell>
        <mxCell id="TG-YVFUVCGgv4PHO8d8e-136" value="" style="rounded=0;whiteSpace=wrap;html=1;fillColor=#e5dc7b;" vertex="1" parent="1">
          <mxGeometry x="152" y="630" width="10" height="20" as="geometry" />
        </mxCell>
        <mxCell id="TG-YVFUVCGgv4PHO8d8e-137" value="" style="rounded=0;whiteSpace=wrap;html=1;fillColor=#e5dc7b;" vertex="1" parent="1">
          <mxGeometry x="162" y="630" width="10" height="20" as="geometry" />
        </mxCell>
        <mxCell id="TG-YVFUVCGgv4PHO8d8e-138" value="" style="rounded=0;whiteSpace=wrap;html=1;fillColor=#e5dc7b;" vertex="1" parent="1">
          <mxGeometry x="172" y="630" width="10" height="20" as="geometry" />
        </mxCell>
        <mxCell id="TG-YVFUVCGgv4PHO8d8e-139" value="" style="rounded=0;whiteSpace=wrap;html=1;fillColor=#e5dc7b;" vertex="1" parent="1">
          <mxGeometry x="182" y="630" width="10" height="20" as="geometry" />
        </mxCell>
        <mxCell id="TG-YVFUVCGgv4PHO8d8e-140" value="" style="rounded=0;whiteSpace=wrap;html=1;fillColor=#e5dc7b;" vertex="1" parent="1">
          <mxGeometry x="192" y="630" width="10" height="20" as="geometry" />
        </mxCell>
        <mxCell id="TG-YVFUVCGgv4PHO8d8e-141" value="" style="rounded=0;whiteSpace=wrap;html=1;fillColor=#e5dc7b;" vertex="1" parent="1">
          <mxGeometry x="202" y="630" width="10" height="20" as="geometry" />
        </mxCell>
        <mxCell id="TG-YVFUVCGgv4PHO8d8e-142" value="" style="rounded=0;whiteSpace=wrap;html=1;fillColor=#e5dc7b;" vertex="1" parent="1">
          <mxGeometry x="212" y="630" width="10" height="20" as="geometry" />
        </mxCell>
        <mxCell id="TG-YVFUVCGgv4PHO8d8e-143" value="" style="rounded=0;whiteSpace=wrap;html=1;fillColor=#e5dc7b;" vertex="1" parent="1">
          <mxGeometry x="222" y="630" width="10" height="20" as="geometry" />
        </mxCell>
        <mxCell id="TG-YVFUVCGgv4PHO8d8e-144" value="" style="rounded=0;whiteSpace=wrap;html=1;fillColor=#e5dc7b;" vertex="1" parent="1">
          <mxGeometry x="232" y="630" width="10" height="20" as="geometry" />
        </mxCell>
        <mxCell id="TG-YVFUVCGgv4PHO8d8e-145" value="" style="rounded=0;whiteSpace=wrap;html=1;fillColor=#e5dc7b;" vertex="1" parent="1">
          <mxGeometry x="242" y="630" width="10" height="20" as="geometry" />
        </mxCell>
        <mxCell id="TG-YVFUVCGgv4PHO8d8e-146" value="" style="rounded=0;whiteSpace=wrap;html=1;fillColor=#e5dc7b;" vertex="1" parent="1">
          <mxGeometry x="252" y="630" width="10" height="20" as="geometry" />
        </mxCell>
        <mxCell id="TG-YVFUVCGgv4PHO8d8e-147" value="" style="rounded=0;whiteSpace=wrap;html=1;fillColor=#e5dc7b;" vertex="1" parent="1">
          <mxGeometry x="262" y="630" width="10" height="20" as="geometry" />
        </mxCell>
        <mxCell id="TG-YVFUVCGgv4PHO8d8e-148" value="" style="rounded=0;whiteSpace=wrap;html=1;fillColor=#e5dc7b;" vertex="1" parent="1">
          <mxGeometry x="272" y="630" width="10" height="20" as="geometry" />
        </mxCell>
        <mxCell id="TG-YVFUVCGgv4PHO8d8e-149" value="" style="rounded=0;whiteSpace=wrap;html=1;fillColor=#e5dc7b;" vertex="1" parent="1">
          <mxGeometry x="282" y="630" width="10" height="20" as="geometry" />
        </mxCell>
        <mxCell id="TG-YVFUVCGgv4PHO8d8e-150" value="" style="rounded=0;whiteSpace=wrap;html=1;fillColor=#e5dc7b;" vertex="1" parent="1">
          <mxGeometry x="292" y="630" width="10" height="20" as="geometry" />
        </mxCell>
        <mxCell id="TG-YVFUVCGgv4PHO8d8e-151" value="" style="rounded=0;whiteSpace=wrap;html=1;fillColor=#e5dc7b;" vertex="1" parent="1">
          <mxGeometry x="302" y="630" width="10" height="20" as="geometry" />
        </mxCell>
        <mxCell id="TG-YVFUVCGgv4PHO8d8e-152" value="" style="rounded=0;whiteSpace=wrap;html=1;fillColor=#e5dc7b;" vertex="1" parent="1">
          <mxGeometry x="312" y="630" width="10" height="20" as="geometry" />
        </mxCell>
        <mxCell id="TG-YVFUVCGgv4PHO8d8e-153" value="" style="rounded=0;whiteSpace=wrap;html=1;fillColor=#e5dc7b;" vertex="1" parent="1">
          <mxGeometry x="322" y="630" width="10" height="20" as="geometry" />
        </mxCell>
        <mxCell id="TG-YVFUVCGgv4PHO8d8e-154" value="" style="rounded=0;whiteSpace=wrap;html=1;fillColor=#e5dc7b;" vertex="1" parent="1">
          <mxGeometry x="332" y="630" width="10" height="20" as="geometry" />
        </mxCell>
        <mxCell id="TG-YVFUVCGgv4PHO8d8e-155" value="" style="rounded=0;whiteSpace=wrap;html=1;fillColor=#e5dc7b;" vertex="1" parent="1">
          <mxGeometry x="342" y="630" width="10" height="20" as="geometry" />
        </mxCell>
        <mxCell id="TG-YVFUVCGgv4PHO8d8e-156" value="" style="rounded=0;whiteSpace=wrap;html=1;fillColor=#e5dc7b;" vertex="1" parent="1">
          <mxGeometry x="352" y="630" width="10" height="20" as="geometry" />
        </mxCell>
        <mxCell id="TG-YVFUVCGgv4PHO8d8e-157" value="" style="rounded=0;whiteSpace=wrap;html=1;fillColor=#e5dc7b;" vertex="1" parent="1">
          <mxGeometry x="362" y="630" width="10" height="20" as="geometry" />
        </mxCell>
        <mxCell id="TG-YVFUVCGgv4PHO8d8e-158" value="" style="rounded=0;whiteSpace=wrap;html=1;fillColor=#e5dc7b;" vertex="1" parent="1">
          <mxGeometry x="372" y="630" width="10" height="20" as="geometry" />
        </mxCell>
        <mxCell id="TG-YVFUVCGgv4PHO8d8e-159" value="" style="rounded=0;whiteSpace=wrap;html=1;fillColor=#e5dc7b;" vertex="1" parent="1">
          <mxGeometry x="382" y="630" width="10" height="20" as="geometry" />
        </mxCell>
        <mxCell id="TG-YVFUVCGgv4PHO8d8e-160" value="" style="rounded=0;whiteSpace=wrap;html=1;fillColor=#e5dc7b;" vertex="1" parent="1">
          <mxGeometry x="392" y="630" width="10" height="20" as="geometry" />
        </mxCell>
        <mxCell id="TG-YVFUVCGgv4PHO8d8e-161" value="" style="rounded=0;whiteSpace=wrap;html=1;fillColor=#e5dc7b;" vertex="1" parent="1">
          <mxGeometry x="402" y="630" width="10" height="20" as="geometry" />
        </mxCell>
        <mxCell id="TG-YVFUVCGgv4PHO8d8e-162" value="" style="rounded=0;whiteSpace=wrap;html=1;fillColor=#e5dc7b;" vertex="1" parent="1">
          <mxGeometry x="412" y="630" width="10" height="20" as="geometry" />
        </mxCell>
        <mxCell id="TG-YVFUVCGgv4PHO8d8e-163" value="" style="rounded=0;whiteSpace=wrap;html=1;fillColor=#e5dc7b;" vertex="1" parent="1">
          <mxGeometry x="422" y="630" width="10" height="20" as="geometry" />
        </mxCell>
        <mxCell id="TG-YVFUVCGgv4PHO8d8e-164" value="" style="rounded=0;whiteSpace=wrap;html=1;fillColor=#e5dc7b;" vertex="1" parent="1">
          <mxGeometry x="432" y="630" width="10" height="20" as="geometry" />
        </mxCell>
        <mxCell id="TG-YVFUVCGgv4PHO8d8e-165" value="" style="rounded=0;whiteSpace=wrap;html=1;fillColor=#e5dc7b;" vertex="1" parent="1">
          <mxGeometry x="662" y="630" width="10" height="20" as="geometry" />
        </mxCell>
        <mxCell id="TG-YVFUVCGgv4PHO8d8e-166" value="" style="rounded=0;whiteSpace=wrap;html=1;fillColor=#e5dc7b;" vertex="1" parent="1">
          <mxGeometry x="678" y="630" width="10" height="20" as="geometry" />
        </mxCell>
        <mxCell id="TG-YVFUVCGgv4PHO8d8e-167" value="" style="rounded=0;whiteSpace=wrap;html=1;fillColor=#e5dc7b;" vertex="1" parent="1">
          <mxGeometry x="688" y="630" width="10" height="20" as="geometry" />
        </mxCell>
        <mxCell id="TG-YVFUVCGgv4PHO8d8e-168" value="" style="rounded=0;whiteSpace=wrap;html=1;fillColor=#e5dc7b;" vertex="1" parent="1">
          <mxGeometry x="698" y="630" width="10" height="20" as="geometry" />
        </mxCell>
        <mxCell id="TG-YVFUVCGgv4PHO8d8e-169" value="" style="rounded=0;whiteSpace=wrap;html=1;fillColor=#e5dc7b;" vertex="1" parent="1">
          <mxGeometry x="708" y="630" width="10" height="20" as="geometry" />
        </mxCell>
        <mxCell id="TG-YVFUVCGgv4PHO8d8e-170" value="" style="rounded=0;whiteSpace=wrap;html=1;fillColor=#e5dc7b;" vertex="1" parent="1">
          <mxGeometry x="718" y="630" width="10" height="20" as="geometry" />
        </mxCell>
        <mxCell id="TG-YVFUVCGgv4PHO8d8e-171" value="" style="rounded=0;whiteSpace=wrap;html=1;fillColor=#e5dc7b;" vertex="1" parent="1">
          <mxGeometry x="728" y="630" width="10" height="20" as="geometry" />
        </mxCell>
        <mxCell id="TG-YVFUVCGgv4PHO8d8e-172" value="" style="rounded=0;whiteSpace=wrap;html=1;fillColor=#e5dc7b;" vertex="1" parent="1">
          <mxGeometry x="738" y="630" width="10" height="20" as="geometry" />
        </mxCell>
        <mxCell id="TG-YVFUVCGgv4PHO8d8e-173" value="" style="rounded=0;whiteSpace=wrap;html=1;fillColor=#e5dc7b;" vertex="1" parent="1">
          <mxGeometry x="748" y="630" width="10" height="20" as="geometry" />
        </mxCell>
        <mxCell id="TG-YVFUVCGgv4PHO8d8e-174" value="" style="rounded=0;whiteSpace=wrap;html=1;fillColor=#e5dc7b;" vertex="1" parent="1">
          <mxGeometry x="758" y="630" width="10" height="20" as="geometry" />
        </mxCell>
        <mxCell id="TG-YVFUVCGgv4PHO8d8e-175" value="" style="rounded=0;whiteSpace=wrap;html=1;fillColor=#e5dc7b;" vertex="1" parent="1">
          <mxGeometry x="768" y="630" width="10" height="20" as="geometry" />
        </mxCell>
        <mxCell id="TG-YVFUVCGgv4PHO8d8e-176" value="" style="rounded=0;whiteSpace=wrap;html=1;fillColor=#e5dc7b;" vertex="1" parent="1">
          <mxGeometry x="778" y="630" width="10" height="20" as="geometry" />
        </mxCell>
        <mxCell id="TG-YVFUVCGgv4PHO8d8e-177" value="" style="rounded=0;whiteSpace=wrap;html=1;fillColor=#e5dc7b;" vertex="1" parent="1">
          <mxGeometry x="788" y="630" width="10" height="20" as="geometry" />
        </mxCell>
        <mxCell id="TG-YVFUVCGgv4PHO8d8e-178" value="" style="rounded=0;whiteSpace=wrap;html=1;fillColor=#e5dc7b;" vertex="1" parent="1">
          <mxGeometry x="798" y="630" width="10" height="20" as="geometry" />
        </mxCell>
        <mxCell id="TG-YVFUVCGgv4PHO8d8e-179" value="" style="rounded=0;whiteSpace=wrap;html=1;fillColor=#e5dc7b;" vertex="1" parent="1">
          <mxGeometry x="808" y="630" width="10" height="20" as="geometry" />
        </mxCell>
        <mxCell id="TG-YVFUVCGgv4PHO8d8e-180" value="" style="rounded=0;whiteSpace=wrap;html=1;fillColor=#e5dc7b;" vertex="1" parent="1">
          <mxGeometry x="818" y="630" width="10" height="20" as="geometry" />
        </mxCell>
        <mxCell id="TG-YVFUVCGgv4PHO8d8e-181" value="" style="rounded=0;whiteSpace=wrap;html=1;fillColor=#e5dc7b;" vertex="1" parent="1">
          <mxGeometry x="828" y="630" width="10" height="20" as="geometry" />
        </mxCell>
        <mxCell id="TG-YVFUVCGgv4PHO8d8e-182" value="" style="rounded=0;whiteSpace=wrap;html=1;fillColor=#e5dc7b;" vertex="1" parent="1">
          <mxGeometry x="838" y="630" width="10" height="20" as="geometry" />
        </mxCell>
        <mxCell id="TG-YVFUVCGgv4PHO8d8e-183" value="" style="rounded=0;whiteSpace=wrap;html=1;fillColor=#e5dc7b;" vertex="1" parent="1">
          <mxGeometry x="848" y="630" width="10" height="20" as="geometry" />
        </mxCell>
        <mxCell id="TG-YVFUVCGgv4PHO8d8e-184" value="" style="rounded=0;whiteSpace=wrap;html=1;fillColor=#e5dc7b;" vertex="1" parent="1">
          <mxGeometry x="858" y="630" width="10" height="20" as="geometry" />
        </mxCell>
        <mxCell id="TG-YVFUVCGgv4PHO8d8e-185" value="" style="rounded=0;whiteSpace=wrap;html=1;fillColor=#e5dc7b;" vertex="1" parent="1">
          <mxGeometry x="868" y="630" width="10" height="20" as="geometry" />
        </mxCell>
        <mxCell id="TG-YVFUVCGgv4PHO8d8e-186" value="" style="rounded=0;whiteSpace=wrap;html=1;fillColor=#e5dc7b;" vertex="1" parent="1">
          <mxGeometry x="878" y="630" width="10" height="20" as="geometry" />
        </mxCell>
        <mxCell id="TG-YVFUVCGgv4PHO8d8e-187" value="" style="rounded=0;whiteSpace=wrap;html=1;fillColor=#e5dc7b;" vertex="1" parent="1">
          <mxGeometry x="888" y="630" width="10" height="20" as="geometry" />
        </mxCell>
        <mxCell id="TG-YVFUVCGgv4PHO8d8e-188" value="" style="rounded=0;whiteSpace=wrap;html=1;fillColor=#e5dc7b;" vertex="1" parent="1">
          <mxGeometry x="898" y="630" width="10" height="20" as="geometry" />
        </mxCell>
        <mxCell id="TG-YVFUVCGgv4PHO8d8e-189" value="" style="rounded=0;whiteSpace=wrap;html=1;fillColor=#e5dc7b;" vertex="1" parent="1">
          <mxGeometry x="908" y="630" width="10" height="20" as="geometry" />
        </mxCell>
        <mxCell id="TG-YVFUVCGgv4PHO8d8e-190" value="" style="rounded=0;whiteSpace=wrap;html=1;fillColor=#e5dc7b;" vertex="1" parent="1">
          <mxGeometry x="918" y="630" width="10" height="20" as="geometry" />
        </mxCell>
        <mxCell id="TG-YVFUVCGgv4PHO8d8e-191" value="" style="rounded=0;whiteSpace=wrap;html=1;fillColor=#e5dc7b;" vertex="1" parent="1">
          <mxGeometry x="928" y="630" width="10" height="20" as="geometry" />
        </mxCell>
        <mxCell id="TG-YVFUVCGgv4PHO8d8e-192" value="" style="rounded=0;whiteSpace=wrap;html=1;fillColor=#e5dc7b;" vertex="1" parent="1">
          <mxGeometry x="938" y="630" width="10" height="20" as="geometry" />
        </mxCell>
        <mxCell id="TG-YVFUVCGgv4PHO8d8e-193" value="" style="rounded=0;whiteSpace=wrap;html=1;fillColor=#e5dc7b;" vertex="1" parent="1">
          <mxGeometry x="948" y="630" width="10" height="20" as="geometry" />
        </mxCell>
        <mxCell id="TG-YVFUVCGgv4PHO8d8e-194" value="" style="rounded=0;whiteSpace=wrap;html=1;fillColor=#e5dc7b;" vertex="1" parent="1">
          <mxGeometry x="958" y="630" width="10" height="20" as="geometry" />
        </mxCell>
        <mxCell id="TG-YVFUVCGgv4PHO8d8e-195" value="" style="rounded=0;whiteSpace=wrap;html=1;fillColor=#e5dc7b;" vertex="1" parent="1">
          <mxGeometry x="968" y="630" width="10" height="20" as="geometry" />
        </mxCell>
        <mxCell id="TG-YVFUVCGgv4PHO8d8e-196" value="" style="rounded=0;whiteSpace=wrap;html=1;fillColor=#e5dc7b;" vertex="1" parent="1">
          <mxGeometry x="978" y="630" width="10" height="20" as="geometry" />
        </mxCell>
        <mxCell id="TG-YVFUVCGgv4PHO8d8e-197" value="" style="rounded=0;whiteSpace=wrap;html=1;fillColor=#e5dc7b;" vertex="1" parent="1">
          <mxGeometry x="988" y="630" width="10" height="20" as="geometry" />
        </mxCell>
        <mxCell id="TG-YVFUVCGgv4PHO8d8e-198" value="" style="rounded=0;whiteSpace=wrap;html=1;fillColor=#e5dc7b;" vertex="1" parent="1">
          <mxGeometry x="998" y="630" width="10" height="20" as="geometry" />
        </mxCell>
        <mxCell id="TG-YVFUVCGgv4PHO8d8e-199" value="" style="rounded=0;whiteSpace=wrap;html=1;fillColor=#e5dc7b;" vertex="1" parent="1">
          <mxGeometry x="1008" y="630" width="10" height="20" as="geometry" />
        </mxCell>
        <mxCell id="TG-YVFUVCGgv4PHO8d8e-200" value="" style="rounded=0;whiteSpace=wrap;html=1;fillColor=#e5dc7b;" vertex="1" parent="1">
          <mxGeometry x="1018" y="630" width="10" height="20" as="geometry" />
        </mxCell>
        <mxCell id="TG-YVFUVCGgv4PHO8d8e-201" value="" style="rounded=0;whiteSpace=wrap;html=1;fillColor=#e5dc7b;" vertex="1" parent="1">
          <mxGeometry x="1028" y="630" width="10" height="20" as="geometry" />
        </mxCell>
        <mxCell id="TG-YVFUVCGgv4PHO8d8e-202" value="" style="rounded=0;whiteSpace=wrap;html=1;fillColor=#e5dc7b;" vertex="1" parent="1">
          <mxGeometry x="1038" y="630" width="10" height="20" as="geometry" />
        </mxCell>
        <mxCell id="TG-YVFUVCGgv4PHO8d8e-203" value="" style="rounded=0;whiteSpace=wrap;html=1;fillColor=#e5dc7b;" vertex="1" parent="1">
          <mxGeometry x="1048" y="630" width="10" height="20" as="geometry" />
        </mxCell>
        <mxCell id="TG-YVFUVCGgv4PHO8d8e-204" value="" style="rounded=0;whiteSpace=wrap;html=1;fillColor=#e5dc7b;" vertex="1" parent="1">
          <mxGeometry x="672" y="630" width="10" height="20" as="geometry" />
        </mxCell>
        <mxCell id="TG-YVFUVCGgv4PHO8d8e-205" value="" style="rounded=0;whiteSpace=wrap;html=1;fillColor=#e5dc7b;" vertex="1" parent="1">
          <mxGeometry x="682" y="630" width="10" height="20" as="geometry" />
        </mxCell>
        <mxCell id="TG-YVFUVCGgv4PHO8d8e-206" value="" style="rounded=0;whiteSpace=wrap;html=1;fillColor=#e5dc7b;" vertex="1" parent="1">
          <mxGeometry x="692" y="630" width="10" height="20" as="geometry" />
        </mxCell>
        <mxCell id="TG-YVFUVCGgv4PHO8d8e-207" value="" style="rounded=0;whiteSpace=wrap;html=1;fillColor=#e5dc7b;" vertex="1" parent="1">
          <mxGeometry x="442" y="630" width="10" height="20" as="geometry" />
        </mxCell>
        <mxCell id="TG-YVFUVCGgv4PHO8d8e-208" value="" style="rounded=0;whiteSpace=wrap;html=1;fillColor=#e5dc7b;" vertex="1" parent="1">
          <mxGeometry x="-58" y="630" width="10" height="20" as="geometry" />
        </mxCell>
        <mxCell id="TG-YVFUVCGgv4PHO8d8e-209" value="" style="rounded=0;whiteSpace=wrap;html=1;fillColor=#e5dc7b;" vertex="1" parent="1">
          <mxGeometry x="-48" y="630" width="10" height="20" as="geometry" />
        </mxCell>
        <mxCell id="TG-YVFUVCGgv4PHO8d8e-210" value="" style="rounded=0;whiteSpace=wrap;html=1;fillColor=#e5dc7b;" vertex="1" parent="1">
          <mxGeometry x="-38" y="630" width="10" height="20" as="geometry" />
        </mxCell>
        <mxCell id="TG-YVFUVCGgv4PHO8d8e-211" value="" style="rounded=0;whiteSpace=wrap;html=1;fillColor=#e5dc7b;" vertex="1" parent="1">
          <mxGeometry x="-28" y="630" width="10" height="20" as="geometry" />
        </mxCell>
        <mxCell id="TG-YVFUVCGgv4PHO8d8e-212" value="" style="rounded=0;whiteSpace=wrap;html=1;fillColor=#e5dc7b;" vertex="1" parent="1">
          <mxGeometry x="-18" y="630" width="10" height="20" as="geometry" />
        </mxCell>
        <mxCell id="TG-YVFUVCGgv4PHO8d8e-213" value="" style="rounded=0;whiteSpace=wrap;html=1;fillColor=#e5dc7b;" vertex="1" parent="1">
          <mxGeometry x="-8" y="630" width="10" height="20" as="geometry" />
        </mxCell>
        <mxCell id="TG-YVFUVCGgv4PHO8d8e-214" value="" style="rounded=0;whiteSpace=wrap;html=1;fillColor=#e5dc7b;" vertex="1" parent="1">
          <mxGeometry x="2" y="630" width="10" height="20" as="geometry" />
        </mxCell>
        <mxCell id="TG-YVFUVCGgv4PHO8d8e-215" value="" style="rounded=0;whiteSpace=wrap;html=1;fillColor=#e5dc7b;" vertex="1" parent="1">
          <mxGeometry x="12" y="630" width="10" height="20" as="geometry" />
        </mxCell>
        <mxCell id="TG-YVFUVCGgv4PHO8d8e-216" value="" style="rounded=0;whiteSpace=wrap;html=1;fillColor=#e5dc7b;" vertex="1" parent="1">
          <mxGeometry x="22" y="630" width="10" height="20" as="geometry" />
        </mxCell>
        <mxCell id="TG-YVFUVCGgv4PHO8d8e-217" value="" style="rounded=0;whiteSpace=wrap;html=1;fillColor=#e5dc7b;" vertex="1" parent="1">
          <mxGeometry x="32" y="630" width="10" height="20" as="geometry" />
        </mxCell>
        <mxCell id="TG-YVFUVCGgv4PHO8d8e-218" value="" style="rounded=0;whiteSpace=wrap;html=1;fillColor=#e5dc7b;" vertex="1" parent="1">
          <mxGeometry x="42" y="630" width="10" height="20" as="geometry" />
        </mxCell>
        <mxCell id="TG-YVFUVCGgv4PHO8d8e-219" value="" style="rounded=0;whiteSpace=wrap;html=1;fillColor=#e5dc7b;" vertex="1" parent="1">
          <mxGeometry x="52" y="630" width="10" height="20" as="geometry" />
        </mxCell>
        <mxCell id="TG-YVFUVCGgv4PHO8d8e-220" value="" style="rounded=0;whiteSpace=wrap;html=1;fillColor=#e5dc7b;" vertex="1" parent="1">
          <mxGeometry x="1058" y="630" width="10" height="20" as="geometry" />
        </mxCell>
        <mxCell id="TG-YVFUVCGgv4PHO8d8e-221" value="" style="rounded=0;whiteSpace=wrap;html=1;fillColor=#e5dc7b;" vertex="1" parent="1">
          <mxGeometry x="1068" y="630" width="10" height="20" as="geometry" />
        </mxCell>
        <mxCell id="TG-YVFUVCGgv4PHO8d8e-222" value="" style="rounded=0;whiteSpace=wrap;html=1;fillColor=#e5dc7b;" vertex="1" parent="1">
          <mxGeometry x="1078" y="630" width="10" height="20" as="geometry" />
        </mxCell>
        <mxCell id="TG-YVFUVCGgv4PHO8d8e-223" value="" style="rounded=0;whiteSpace=wrap;html=1;fillColor=#e5dc7b;" vertex="1" parent="1">
          <mxGeometry x="1088" y="630" width="10" height="20" as="geometry" />
        </mxCell>
        <mxCell id="TG-YVFUVCGgv4PHO8d8e-224" value="" style="rounded=0;whiteSpace=wrap;html=1;fillColor=#e5dc7b;" vertex="1" parent="1">
          <mxGeometry x="1098" y="630" width="10" height="20" as="geometry" />
        </mxCell>
        <mxCell id="TG-YVFUVCGgv4PHO8d8e-225" value="" style="rounded=0;whiteSpace=wrap;html=1;fillColor=#e5dc7b;" vertex="1" parent="1">
          <mxGeometry x="1108" y="630" width="10" height="20" as="geometry" />
        </mxCell>
        <mxCell id="TG-YVFUVCGgv4PHO8d8e-226" value="" style="rounded=0;whiteSpace=wrap;html=1;fillColor=#e5dc7b;" vertex="1" parent="1">
          <mxGeometry x="1118" y="630" width="10" height="20" as="geometry" />
        </mxCell>
        <mxCell id="TG-YVFUVCGgv4PHO8d8e-227" value="" style="rounded=0;whiteSpace=wrap;html=1;fillColor=#e5dc7b;" vertex="1" parent="1">
          <mxGeometry x="1128" y="630" width="10" height="20" as="geometry" />
        </mxCell>
        <mxCell id="TG-YVFUVCGgv4PHO8d8e-228" value="" style="rounded=0;whiteSpace=wrap;html=1;fillColor=#e5dc7b;" vertex="1" parent="1">
          <mxGeometry x="1138" y="630" width="10" height="20" as="geometry" />
        </mxCell>
        <mxCell id="TG-YVFUVCGgv4PHO8d8e-229" value="" style="rounded=0;whiteSpace=wrap;html=1;fillColor=#e5dc7b;" vertex="1" parent="1">
          <mxGeometry x="1148" y="630" width="10" height="20" as="geometry" />
        </mxCell>
        <mxCell id="TG-YVFUVCGgv4PHO8d8e-230" value="" style="shape=or;whiteSpace=wrap;html=1;direction=south;" vertex="1" parent="1">
          <mxGeometry x="540" y="630" width="20" height="30" as="geometry" />
        </mxCell>
        <mxCell id="TG-YVFUVCGgv4PHO8d8e-231" value="" style="html=1;shadow=0;dashed=0;align=center;verticalAlign=middle;shape=mxgraph.arrows2.bendDoubleArrow;dy=6.29;dx=32.02;arrowHead=51.38;rounded=1;rotation=-45;" vertex="1" parent="1">
          <mxGeometry x="-175.74" y="423.64" width="173.1" height="178.41" as="geometry" />
        </mxCell>
        <mxCell id="TG-YVFUVCGgv4PHO8d8e-232" value="FLIP" style="text;html=1;align=center;verticalAlign=middle;whiteSpace=wrap;rounded=0;fontStyle=1;fontSize=19;" vertex="1" parent="1">
          <mxGeometry x="-160" y="497.84000000000003" width="60" height="30" as="geometry" />
        </mxCell>
        <mxCell id="TG-YVFUVCGgv4PHO8d8e-233" style="edgeStyle=orthogonalEdgeStyle;rounded=0;orthogonalLoop=1;jettySize=auto;html=1;exitX=0.25;exitY=1;exitDx=0;exitDy=0;entryX=1;entryY=0.5;entryDx=0;entryDy=0;strokeWidth=2;strokeColor=#d79b00;endArrow=none;endFill=0;fillColor=#dae8fc;" edge="1" parent="1">
          <mxGeometry relative="1" as="geometry">
            <mxPoint x="450" y="220.95" as="sourcePoint" />
            <mxPoint x="10" y="206.45" as="targetPoint" />
            <Array as="points">
              <mxPoint x="370" y="221" />
              <mxPoint x="370" y="207" />
            </Array>
          </mxGeometry>
        </mxCell>
        <mxCell id="TG-YVFUVCGgv4PHO8d8e-234" style="edgeStyle=orthogonalEdgeStyle;rounded=0;orthogonalLoop=1;jettySize=auto;html=1;exitX=0.75;exitY=1;exitDx=0;exitDy=0;strokeWidth=2;strokeColor=#d79b00;endArrow=none;endFill=0;fillColor=#dae8fc;" edge="1" parent="1">
          <mxGeometry relative="1" as="geometry">
            <mxPoint x="450" y="285" as="sourcePoint" />
            <mxPoint x="10" y="297.5" as="targetPoint" />
            <Array as="points">
              <mxPoint x="370" y="285" />
              <mxPoint x="370" y="297" />
            </Array>
          </mxGeometry>
        </mxCell>
        <mxCell id="TG-YVFUVCGgv4PHO8d8e-235" style="edgeStyle=orthogonalEdgeStyle;rounded=0;orthogonalLoop=1;jettySize=auto;html=1;exitX=0.25;exitY=0;exitDx=0;exitDy=0;strokeWidth=2;strokeColor=#d79b00;endArrow=none;endFill=0;entryX=0;entryY=0.5;entryDx=0;entryDy=0;fillColor=#d5e8d4;" edge="1" parent="1">
          <mxGeometry relative="1" as="geometry">
            <mxPoint x="650.5" y="288" as="sourcePoint" />
            <mxPoint x="1091.5" y="301" as="targetPoint" />
            <Array as="points">
              <mxPoint x="730" y="288" />
              <mxPoint x="730" y="301" />
            </Array>
          </mxGeometry>
        </mxCell>
        <mxCell id="TG-YVFUVCGgv4PHO8d8e-236" style="edgeStyle=orthogonalEdgeStyle;rounded=0;orthogonalLoop=1;jettySize=auto;html=1;exitX=0.25;exitY=0;exitDx=0;exitDy=0;strokeWidth=2;strokeColor=#d79b00;endArrow=none;endFill=0;fillColor=#d5e8d4;" edge="1" parent="1">
          <mxGeometry relative="1" as="geometry">
            <mxPoint x="650.5" y="222" as="sourcePoint" />
            <mxPoint x="1091.5" y="207.5" as="targetPoint" />
            <Array as="points">
              <mxPoint x="730" y="222" />
              <mxPoint x="730" y="208" />
            </Array>
          </mxGeometry>
        </mxCell>
        <mxCell id="TG-YVFUVCGgv4PHO8d8e-237" style="edgeStyle=orthogonalEdgeStyle;rounded=0;orthogonalLoop=1;jettySize=auto;html=1;exitX=0.25;exitY=1;exitDx=0;exitDy=0;entryX=1;entryY=0.5;entryDx=0;entryDy=0;strokeWidth=2;strokeColor=#b85450;endArrow=none;endFill=0;fillColor=#dae8fc;" edge="1" parent="1">
          <mxGeometry relative="1" as="geometry">
            <mxPoint x="447" y="720.25" as="sourcePoint" />
            <mxPoint x="7" y="705.75" as="targetPoint" />
            <Array as="points">
              <mxPoint x="407" y="720.75" />
              <mxPoint x="407" y="705.75" />
            </Array>
          </mxGeometry>
        </mxCell>
        <mxCell id="TG-YVFUVCGgv4PHO8d8e-238" style="edgeStyle=orthogonalEdgeStyle;rounded=0;orthogonalLoop=1;jettySize=auto;html=1;exitX=0.75;exitY=1;exitDx=0;exitDy=0;strokeWidth=2;strokeColor=#b85450;endArrow=none;endFill=0;fillColor=#dae8fc;" edge="1" parent="1">
          <mxGeometry relative="1" as="geometry">
            <mxPoint x="450" y="830.5" as="sourcePoint" />
            <mxPoint x="10" y="843" as="targetPoint" />
            <Array as="points">
              <mxPoint x="410" y="830" />
              <mxPoint x="410" y="843" />
            </Array>
          </mxGeometry>
        </mxCell>
        <mxCell id="TG-YVFUVCGgv4PHO8d8e-239" style="edgeStyle=orthogonalEdgeStyle;rounded=0;orthogonalLoop=1;jettySize=auto;html=1;exitX=0.25;exitY=0;exitDx=0;exitDy=0;strokeWidth=2;strokeColor=#9673a6;endArrow=none;endFill=0;fillColor=#d5e8d4;" edge="1" parent="1">
          <mxGeometry relative="1" as="geometry">
            <mxPoint x="650" y="721.5" as="sourcePoint" />
            <mxPoint x="1091" y="707" as="targetPoint" />
            <Array as="points">
              <mxPoint x="690" y="722" />
              <mxPoint x="690" y="707" />
            </Array>
          </mxGeometry>
        </mxCell>
        <mxCell id="TG-YVFUVCGgv4PHO8d8e-240" value="&lt;font style=&quot;font-size: 14px;&quot; color=&quot;#ababab&quot;&gt;&lt;b&gt;RCD&lt;/b&gt;&lt;/font&gt;" style="rounded=0;whiteSpace=wrap;html=1;strokeColor=#454744;fillColor=#464646;direction=south;" vertex="1" parent="1">
          <mxGeometry x="450" y="710" width="200" height="130" as="geometry" />
        </mxCell>
        <mxCell id="TG-YVFUVCGgv4PHO8d8e-241" style="edgeStyle=orthogonalEdgeStyle;rounded=0;orthogonalLoop=1;jettySize=auto;html=1;exitX=0.25;exitY=0;exitDx=0;exitDy=0;strokeWidth=2;strokeColor=#9673a6;endArrow=none;endFill=0;entryX=0;entryY=0.5;entryDx=0;entryDy=0;fillColor=#d5e8d4;" edge="1" parent="1">
          <mxGeometry relative="1" as="geometry">
            <mxPoint x="650" y="830" as="sourcePoint" />
            <mxPoint x="1091" y="843" as="targetPoint" />
            <Array as="points">
              <mxPoint x="690" y="830" />
              <mxPoint x="690" y="843" />
            </Array>
          </mxGeometry>
        </mxCell>
        <mxCell id="TG-YVFUVCGgv4PHO8d8e-242" value="QBCS1_A" style="text;html=1;align=center;verticalAlign=middle;whiteSpace=wrap;rounded=0;fontColor=#b85450;" vertex="1" parent="1">
          <mxGeometry x="345" y="839" width="60" height="30" as="geometry" />
        </mxCell>
        <mxCell id="TG-YVFUVCGgv4PHO8d8e-243" value="QACS1_A" style="text;html=1;align=center;verticalAlign=middle;whiteSpace=wrap;rounded=0;fontColor=#b85450;" vertex="1" parent="1">
          <mxGeometry x="340" y="681" width="60" height="30" as="geometry" />
        </mxCell>
        <mxCell id="TG-YVFUVCGgv4PHO8d8e-244" value="QBCS1_B" style="text;html=1;align=center;verticalAlign=middle;whiteSpace=wrap;rounded=0;fontColor=#9673a6;" vertex="1" parent="1">
          <mxGeometry x="701" y="840" width="60" height="30" as="geometry" />
        </mxCell>
        <mxCell id="TG-YVFUVCGgv4PHO8d8e-245" value="QACS1_B" style="text;html=1;align=center;verticalAlign=middle;whiteSpace=wrap;rounded=0;fontColor=#9673a6;" vertex="1" parent="1">
          <mxGeometry x="698" y="680" width="60" height="30" as="geometry" />
        </mxCell>
        <mxCell id="TG-YVFUVCGgv4PHO8d8e-246" style="edgeStyle=orthogonalEdgeStyle;rounded=0;orthogonalLoop=1;jettySize=auto;html=1;exitX=0.25;exitY=1;exitDx=0;exitDy=0;entryX=1;entryY=0.5;entryDx=0;entryDy=0;strokeWidth=2;strokeColor=#d79b00;endArrow=none;endFill=0;fillColor=#dae8fc;" edge="1" parent="1">
          <mxGeometry relative="1" as="geometry">
            <mxPoint x="450" y="742.95" as="sourcePoint" />
            <mxPoint x="10" y="728.45" as="targetPoint" />
            <Array as="points">
              <mxPoint x="370" y="743" />
              <mxPoint x="370" y="729" />
            </Array>
          </mxGeometry>
        </mxCell>
        <mxCell id="TG-YVFUVCGgv4PHO8d8e-247" style="edgeStyle=orthogonalEdgeStyle;rounded=0;orthogonalLoop=1;jettySize=auto;html=1;exitX=0.75;exitY=1;exitDx=0;exitDy=0;strokeWidth=2;strokeColor=#d79b00;endArrow=none;endFill=0;fillColor=#dae8fc;" edge="1" parent="1">
          <mxGeometry relative="1" as="geometry">
            <mxPoint x="450" y="808" as="sourcePoint" />
            <mxPoint x="10" y="820.5" as="targetPoint" />
            <Array as="points">
              <mxPoint x="370" y="808" />
              <mxPoint x="370" y="820" />
            </Array>
          </mxGeometry>
        </mxCell>
        <mxCell id="TG-YVFUVCGgv4PHO8d8e-248" style="edgeStyle=orthogonalEdgeStyle;rounded=0;orthogonalLoop=1;jettySize=auto;html=1;exitX=0.25;exitY=0;exitDx=0;exitDy=0;strokeWidth=2;strokeColor=#d79b00;endArrow=none;endFill=0;entryX=0;entryY=0.5;entryDx=0;entryDy=0;fillColor=#d5e8d4;" edge="1" parent="1">
          <mxGeometry relative="1" as="geometry">
            <mxPoint x="650.5" y="808" as="sourcePoint" />
            <mxPoint x="1091.5" y="821" as="targetPoint" />
            <Array as="points">
              <mxPoint x="730" y="808" />
              <mxPoint x="730" y="821" />
            </Array>
          </mxGeometry>
        </mxCell>
        <mxCell id="TG-YVFUVCGgv4PHO8d8e-249" style="edgeStyle=orthogonalEdgeStyle;rounded=0;orthogonalLoop=1;jettySize=auto;html=1;exitX=0.25;exitY=0;exitDx=0;exitDy=0;strokeWidth=2;strokeColor=#d79b00;endArrow=none;endFill=0;fillColor=#d5e8d4;" edge="1" parent="1">
          <mxGeometry relative="1" as="geometry">
            <mxPoint x="650.5" y="742" as="sourcePoint" />
            <mxPoint x="1091.5" y="727.5" as="targetPoint" />
            <Array as="points">
              <mxPoint x="730" y="742" />
              <mxPoint x="730" y="728" />
            </Array>
          </mxGeometry>
        </mxCell>
        <mxCell id="TG-YVFUVCGgv4PHO8d8e-250" value="QBCK_A_t/c" style="text;html=1;align=center;verticalAlign=middle;whiteSpace=wrap;rounded=0;fontColor=#d79b00;" vertex="1" parent="1">
          <mxGeometry x="380" y="196" width="60" height="30" as="geometry" />
        </mxCell>
        <mxCell id="TG-YVFUVCGgv4PHO8d8e-251" value="QACK_A_t/c" style="text;html=1;align=center;verticalAlign=middle;whiteSpace=wrap;rounded=0;fontColor=#d79b00;" vertex="1" parent="1">
          <mxGeometry x="381" y="279" width="60" height="30" as="geometry" />
        </mxCell>
        <mxCell id="TG-YVFUVCGgv4PHO8d8e-252" value="QBCK_B_t/c" style="text;html=1;align=center;verticalAlign=middle;whiteSpace=wrap;rounded=0;fontColor=#d79b00;" vertex="1" parent="1">
          <mxGeometry x="659" y="198" width="60" height="30" as="geometry" />
        </mxCell>
        <mxCell id="TG-YVFUVCGgv4PHO8d8e-253" value="QACK_B_t/c" style="text;html=1;align=center;verticalAlign=middle;whiteSpace=wrap;rounded=0;fontColor=#d79b00;" vertex="1" parent="1">
          <mxGeometry x="659" y="283" width="60" height="30" as="geometry" />
        </mxCell>
        <mxCell id="TG-YVFUVCGgv4PHO8d8e-254" value="QCCK_A_t/c" style="text;html=1;align=center;verticalAlign=middle;whiteSpace=wrap;rounded=0;fontColor=#d79b00;" vertex="1" parent="1">
          <mxGeometry x="380" y="720" width="60" height="30" as="geometry" />
        </mxCell>
        <mxCell id="TG-YVFUVCGgv4PHO8d8e-255" value="QDCK_A_t/c" style="text;html=1;align=center;verticalAlign=middle;whiteSpace=wrap;rounded=0;fontColor=#d79b00;" vertex="1" parent="1">
          <mxGeometry x="381" y="801" width="60" height="30" as="geometry" />
        </mxCell>
        <mxCell id="TG-YVFUVCGgv4PHO8d8e-256" value="QCCK_B_t/c" style="text;html=1;align=center;verticalAlign=middle;whiteSpace=wrap;rounded=0;fontColor=#d79b00;" vertex="1" parent="1">
          <mxGeometry x="662" y="719" width="60" height="30" as="geometry" />
        </mxCell>
        <mxCell id="TG-YVFUVCGgv4PHO8d8e-257" value="QDCK_B_t/c" style="text;html=1;align=center;verticalAlign=middle;whiteSpace=wrap;rounded=0;fontColor=#d79b00;" vertex="1" parent="1">
          <mxGeometry x="659" y="801" width="60" height="30" as="geometry" />
        </mxCell>
        <mxCell id="TG-YVFUVCGgv4PHO8d8e-258" value="" style="endArrow=classic;html=1;rounded=0;strokeWidth=4;fillColor=#ffe6cc;strokeColor=#0aa7f5;" edge="1" parent="1">
          <mxGeometry width="50" height="50" relative="1" as="geometry">
            <mxPoint x="480" y="540" as="sourcePoint" />
            <mxPoint x="510" y="320" as="targetPoint" />
            <Array as="points">
              <mxPoint x="480" y="520" />
              <mxPoint x="510" y="520" />
              <mxPoint x="510" y="430" />
            </Array>
          </mxGeometry>
        </mxCell>
        <mxCell id="TG-YVFUVCGgv4PHO8d8e-259" value="" style="endArrow=classic;html=1;rounded=0;strokeWidth=4;fillColor=#fff2cc;strokeColor=#082fa6;" edge="1" parent="1">
          <mxGeometry width="50" height="50" relative="1" as="geometry">
            <mxPoint x="550" y="540" as="sourcePoint" />
            <mxPoint x="526" y="320" as="targetPoint" />
            <Array as="points">
              <mxPoint x="550" y="520" />
              <mxPoint x="526" y="520" />
              <mxPoint x="526" y="430" />
            </Array>
          </mxGeometry>
        </mxCell>
        <mxCell id="TG-YVFUVCGgv4PHO8d8e-260" value="&lt;span style=&quot;font-size: 14px; font-weight: 700; text-align: center;&quot;&gt;&lt;font&gt;DCA[6:0]_A&lt;/font&gt;&lt;/span&gt;" style="text;whiteSpace=wrap;html=1;fontColor=#0aa7f5;fontSize=12;" vertex="1" parent="1">
          <mxGeometry x="440" y="540" width="80" height="30" as="geometry" />
        </mxCell>
        <mxCell id="TG-YVFUVCGgv4PHO8d8e-261" value="&lt;span style=&quot;font-size: 14px; font-weight: 700; text-align: center;&quot;&gt;DCA[6:0]_B&lt;/span&gt;" style="text;whiteSpace=wrap;html=1;fontColor=#0a2ea6;fontSize=12;fontFamily=Helvetica;" vertex="1" parent="1">
          <mxGeometry x="520" y="540" width="80" height="30" as="geometry" />
        </mxCell>
        <mxCell id="TG-YVFUVCGgv4PHO8d8e-262" style="edgeStyle=orthogonalEdgeStyle;rounded=0;orthogonalLoop=1;jettySize=auto;html=1;exitX=0.25;exitY=1;exitDx=0;exitDy=0;entryX=1;entryY=0.5;entryDx=0;entryDy=0;strokeWidth=2;strokeColor=#0aa7f5;endArrow=none;endFill=0;fillColor=#dae8fc;" edge="1" parent="1">
          <mxGeometry relative="1" as="geometry">
            <mxPoint x="452" y="247.92" as="sourcePoint" />
            <mxPoint x="12" y="233.42" as="targetPoint" />
            <Array as="points">
              <mxPoint x="340" y="248" />
              <mxPoint x="340" y="233" />
            </Array>
          </mxGeometry>
        </mxCell>
        <mxCell id="TG-YVFUVCGgv4PHO8d8e-263" style="edgeStyle=orthogonalEdgeStyle;rounded=0;orthogonalLoop=1;jettySize=auto;html=1;exitX=0.75;exitY=1;exitDx=0;exitDy=0;strokeWidth=2;strokeColor=#0aa7f5;endArrow=none;endFill=0;fillColor=#dae8fc;" edge="1" parent="1">
          <mxGeometry relative="1" as="geometry">
            <mxPoint x="450" y="263.74" as="sourcePoint" />
            <mxPoint x="10" y="276.24" as="targetPoint" />
            <Array as="points">
              <mxPoint x="450" y="260" />
              <mxPoint x="340" y="260" />
              <mxPoint x="340" y="276" />
            </Array>
          </mxGeometry>
        </mxCell>
        <mxCell id="TG-YVFUVCGgv4PHO8d8e-264" value="&lt;font style=&quot;font-size: 14px;&quot; color=&quot;#ababab&quot;&gt;DQ&lt;/font&gt;&lt;div style=&quot;font-size: 14px;&quot;&gt;&lt;font color=&quot;#ababab&quot;&gt;x4&lt;/font&gt;&lt;/div&gt;" style="rounded=0;whiteSpace=wrap;html=1;strokeColor=#454744;fillColor=#464646;" vertex="1" parent="1">
          <mxGeometry x="-50" y="260" width="60" height="80" as="geometry" />
        </mxCell>
        <mxCell id="TG-YVFUVCGgv4PHO8d8e-265" value="&lt;font style=&quot;font-size: 14px;&quot; color=&quot;#ababab&quot;&gt;DQ&lt;/font&gt;&lt;div style=&quot;font-size: 14px;&quot;&gt;&lt;font color=&quot;#ababab&quot;&gt;x4&lt;/font&gt;&lt;/div&gt;" style="rounded=0;whiteSpace=wrap;html=1;strokeColor=#454744;fillColor=#464646;" vertex="1" parent="1">
          <mxGeometry x="30" y="260" width="60" height="80" as="geometry" />
        </mxCell>
        <mxCell id="TG-YVFUVCGgv4PHO8d8e-266" value="&lt;font style=&quot;font-size: 14px;&quot; color=&quot;#ababab&quot;&gt;DQ&lt;/font&gt;&lt;div style=&quot;font-size: 14px;&quot;&gt;&lt;font color=&quot;#ababab&quot;&gt;x4&lt;/font&gt;&lt;/div&gt;" style="rounded=0;whiteSpace=wrap;html=1;strokeColor=#454744;fillColor=#464646;" vertex="1" parent="1">
          <mxGeometry x="110" y="260" width="60" height="80" as="geometry" />
        </mxCell>
        <mxCell id="TG-YVFUVCGgv4PHO8d8e-267" value="&lt;font style=&quot;font-size: 14px;&quot; color=&quot;#ababab&quot;&gt;DQ&lt;/font&gt;&lt;div style=&quot;font-size: 14px;&quot;&gt;&lt;font color=&quot;#ababab&quot;&gt;x4&lt;/font&gt;&lt;/div&gt;" style="rounded=0;whiteSpace=wrap;html=1;strokeColor=#454744;fillColor=#464646;" vertex="1" parent="1">
          <mxGeometry x="190" y="260" width="60" height="80" as="geometry" />
        </mxCell>
        <mxCell id="TG-YVFUVCGgv4PHO8d8e-268" value="&lt;font style=&quot;font-size: 14px;&quot; color=&quot;#ababab&quot;&gt;ECC&lt;/font&gt;&lt;div style=&quot;font-size: 14px;&quot;&gt;&lt;font color=&quot;#ababab&quot;&gt;x4&lt;/font&gt;&lt;/div&gt;" style="rounded=0;whiteSpace=wrap;html=1;strokeColor=#454744;fillColor=#464646;" vertex="1" parent="1">
          <mxGeometry x="270" y="260" width="60" height="80" as="geometry" />
        </mxCell>
        <mxCell id="TG-YVFUVCGgv4PHO8d8e-269" value="&lt;font color=&quot;#ababab&quot; style=&quot;font-size: 14px;&quot;&gt;DQ&lt;/font&gt;&lt;div style=&quot;font-size: 14px;&quot;&gt;&lt;font color=&quot;#ababab&quot; style=&quot;font-size: 14px;&quot;&gt;x4&lt;/font&gt;&lt;/div&gt;" style="rounded=0;whiteSpace=wrap;html=1;strokeColor=#454744;fillColor=#464646;" vertex="1" parent="1">
          <mxGeometry x="-50" y="168" width="60" height="80" as="geometry" />
        </mxCell>
        <mxCell id="TG-YVFUVCGgv4PHO8d8e-270" value="&lt;font style=&quot;font-size: 14px;&quot; color=&quot;#ababab&quot;&gt;DQ&lt;/font&gt;&lt;div style=&quot;font-size: 14px;&quot;&gt;&lt;font color=&quot;#ababab&quot;&gt;x4&lt;/font&gt;&lt;/div&gt;" style="rounded=0;whiteSpace=wrap;html=1;strokeColor=#454744;fillColor=#464646;" vertex="1" parent="1">
          <mxGeometry x="30" y="168" width="60" height="80" as="geometry" />
        </mxCell>
        <mxCell id="TG-YVFUVCGgv4PHO8d8e-271" value="&lt;font style=&quot;font-size: 14px;&quot; color=&quot;#ababab&quot;&gt;DQ&lt;/font&gt;&lt;div style=&quot;font-size: 14px;&quot;&gt;&lt;font color=&quot;#ababab&quot;&gt;x4&lt;/font&gt;&lt;/div&gt;" style="rounded=0;whiteSpace=wrap;html=1;strokeColor=#454744;fillColor=#464646;" vertex="1" parent="1">
          <mxGeometry x="110" y="168" width="60" height="80" as="geometry" />
        </mxCell>
        <mxCell id="TG-YVFUVCGgv4PHO8d8e-272" value="&lt;font style=&quot;font-size: 14px;&quot; color=&quot;#ababab&quot;&gt;DQ&lt;/font&gt;&lt;div style=&quot;font-size: 14px;&quot;&gt;&lt;font color=&quot;#ababab&quot;&gt;x4&lt;/font&gt;&lt;/div&gt;" style="rounded=0;whiteSpace=wrap;html=1;strokeColor=#454744;fillColor=#464646;" vertex="1" parent="1">
          <mxGeometry x="190" y="168" width="60" height="80" as="geometry" />
        </mxCell>
        <mxCell id="TG-YVFUVCGgv4PHO8d8e-273" value="&lt;font style=&quot;font-size: 14px;&quot; color=&quot;#ababab&quot;&gt;ECC&lt;/font&gt;&lt;div style=&quot;font-size: 14px;&quot;&gt;&lt;font color=&quot;#ababab&quot;&gt;x4&lt;/font&gt;&lt;/div&gt;" style="rounded=0;whiteSpace=wrap;html=1;strokeColor=#454744;fillColor=#464646;" vertex="1" parent="1">
          <mxGeometry x="270" y="168" width="60" height="80" as="geometry" />
        </mxCell>
        <mxCell id="TG-YVFUVCGgv4PHO8d8e-274" value="QACA[13:0]_A" style="text;html=1;align=center;verticalAlign=middle;whiteSpace=wrap;rounded=0;fontColor=#0aa7f5;" vertex="1" parent="1">
          <mxGeometry x="352" y="255" width="98" height="30" as="geometry" />
        </mxCell>
        <mxCell id="TG-YVFUVCGgv4PHO8d8e-275" value="QBCA[13:0]_A" style="text;html=1;align=center;verticalAlign=middle;whiteSpace=wrap;rounded=0;fontColor=#0aa7f5;" vertex="1" parent="1">
          <mxGeometry x="350" y="223" width="102" height="30" as="geometry" />
        </mxCell>
        <mxCell id="TG-YVFUVCGgv4PHO8d8e-276" style="edgeStyle=orthogonalEdgeStyle;rounded=0;orthogonalLoop=1;jettySize=auto;html=1;exitX=0.25;exitY=1;exitDx=0;exitDy=0;entryX=1;entryY=0.5;entryDx=0;entryDy=0;strokeWidth=2;strokeColor=#0aa7f5;endArrow=none;endFill=0;fillColor=#dae8fc;" edge="1" parent="1">
          <mxGeometry relative="1" as="geometry">
            <mxPoint x="450" y="768.92" as="sourcePoint" />
            <mxPoint x="10" y="754.42" as="targetPoint" />
            <Array as="points">
              <mxPoint x="338" y="769" />
              <mxPoint x="338" y="754" />
            </Array>
          </mxGeometry>
        </mxCell>
        <mxCell id="TG-YVFUVCGgv4PHO8d8e-277" style="edgeStyle=orthogonalEdgeStyle;rounded=0;orthogonalLoop=1;jettySize=auto;html=1;exitX=0.75;exitY=1;exitDx=0;exitDy=0;strokeWidth=2;strokeColor=#0aa7f5;endArrow=none;endFill=0;fillColor=#dae8fc;" edge="1" parent="1">
          <mxGeometry relative="1" as="geometry">
            <mxPoint x="448" y="784.74" as="sourcePoint" />
            <mxPoint x="8" y="797.24" as="targetPoint" />
            <Array as="points">
              <mxPoint x="448" y="781" />
              <mxPoint x="338" y="781" />
              <mxPoint x="338" y="797" />
            </Array>
          </mxGeometry>
        </mxCell>
        <mxCell id="TG-YVFUVCGgv4PHO8d8e-278" value="QBCA[13:0]_A" style="text;html=1;align=center;verticalAlign=middle;whiteSpace=wrap;rounded=0;fontColor=#0aa7f5;" vertex="1" parent="1">
          <mxGeometry x="350" y="776" width="98" height="30" as="geometry" />
        </mxCell>
        <mxCell id="TG-YVFUVCGgv4PHO8d8e-279" value="QACA[13:0]_A" style="text;html=1;align=center;verticalAlign=middle;whiteSpace=wrap;rounded=0;fontColor=#0aa7f5;" vertex="1" parent="1">
          <mxGeometry x="348" y="744" width="102" height="30" as="geometry" />
        </mxCell>
        <mxCell id="TG-YVFUVCGgv4PHO8d8e-280" value="&lt;font style=&quot;font-size: 14px;&quot; color=&quot;#ababab&quot;&gt;DQ&lt;/font&gt;&lt;div style=&quot;font-size: 14px;&quot;&gt;&lt;font color=&quot;#ababab&quot;&gt;x4&lt;/font&gt;&lt;/div&gt;" style="rounded=0;whiteSpace=wrap;html=1;strokeColor=#454744;fillColor=#464646;" vertex="1" parent="1">
          <mxGeometry x="-50" y="780" width="60" height="80" as="geometry" />
        </mxCell>
        <mxCell id="TG-YVFUVCGgv4PHO8d8e-281" value="&lt;font style=&quot;font-size: 14px;&quot; color=&quot;#ababab&quot;&gt;DQ&lt;/font&gt;&lt;div style=&quot;font-size: 14px;&quot;&gt;&lt;font color=&quot;#ababab&quot;&gt;x4&lt;/font&gt;&lt;/div&gt;" style="rounded=0;whiteSpace=wrap;html=1;strokeColor=#454744;fillColor=#464646;" vertex="1" parent="1">
          <mxGeometry x="30" y="780" width="60" height="80" as="geometry" />
        </mxCell>
        <mxCell id="TG-YVFUVCGgv4PHO8d8e-282" value="&lt;font style=&quot;font-size: 14px;&quot; color=&quot;#ababab&quot;&gt;DQ&lt;/font&gt;&lt;div style=&quot;font-size: 14px;&quot;&gt;&lt;font color=&quot;#ababab&quot;&gt;x4&lt;/font&gt;&lt;/div&gt;" style="rounded=0;whiteSpace=wrap;html=1;strokeColor=#454744;fillColor=#464646;" vertex="1" parent="1">
          <mxGeometry x="110" y="780" width="60" height="80" as="geometry" />
        </mxCell>
        <mxCell id="TG-YVFUVCGgv4PHO8d8e-283" value="&lt;font style=&quot;font-size: 14px;&quot; color=&quot;#ababab&quot;&gt;DQ&lt;/font&gt;&lt;div style=&quot;font-size: 14px;&quot;&gt;&lt;font color=&quot;#ababab&quot;&gt;x4&lt;/font&gt;&lt;/div&gt;" style="rounded=0;whiteSpace=wrap;html=1;strokeColor=#454744;fillColor=#464646;" vertex="1" parent="1">
          <mxGeometry x="190" y="780" width="60" height="80" as="geometry" />
        </mxCell>
        <mxCell id="TG-YVFUVCGgv4PHO8d8e-284" value="&lt;font style=&quot;font-size: 14px;&quot; color=&quot;#ababab&quot;&gt;ECC&lt;/font&gt;&lt;div style=&quot;font-size: 14px;&quot;&gt;&lt;font color=&quot;#ababab&quot;&gt;x4&lt;/font&gt;&lt;/div&gt;" style="rounded=0;whiteSpace=wrap;html=1;strokeColor=#454744;fillColor=#464646;" vertex="1" parent="1">
          <mxGeometry x="270" y="780" width="60" height="80" as="geometry" />
        </mxCell>
        <mxCell id="TG-YVFUVCGgv4PHO8d8e-285" value="&lt;font color=&quot;#ababab&quot; style=&quot;font-size: 14px;&quot;&gt;DQ&lt;/font&gt;&lt;div style=&quot;font-size: 14px;&quot;&gt;&lt;font color=&quot;#ababab&quot; style=&quot;font-size: 14px;&quot;&gt;x4&lt;/font&gt;&lt;/div&gt;" style="rounded=0;whiteSpace=wrap;html=1;strokeColor=#454744;fillColor=#464646;" vertex="1" parent="1">
          <mxGeometry x="-50" y="688" width="60" height="80" as="geometry" />
        </mxCell>
        <mxCell id="TG-YVFUVCGgv4PHO8d8e-286" value="&lt;font style=&quot;font-size: 14px;&quot; color=&quot;#ababab&quot;&gt;DQ&lt;/font&gt;&lt;div style=&quot;font-size: 14px;&quot;&gt;&lt;font color=&quot;#ababab&quot;&gt;x4&lt;/font&gt;&lt;/div&gt;" style="rounded=0;whiteSpace=wrap;html=1;strokeColor=#454744;fillColor=#464646;" vertex="1" parent="1">
          <mxGeometry x="30" y="688" width="60" height="80" as="geometry" />
        </mxCell>
        <mxCell id="TG-YVFUVCGgv4PHO8d8e-287" value="&lt;font style=&quot;font-size: 14px;&quot; color=&quot;#ababab&quot;&gt;DQ&lt;/font&gt;&lt;div style=&quot;font-size: 14px;&quot;&gt;&lt;font color=&quot;#ababab&quot;&gt;x4&lt;/font&gt;&lt;/div&gt;" style="rounded=0;whiteSpace=wrap;html=1;strokeColor=#454744;fillColor=#464646;" vertex="1" parent="1">
          <mxGeometry x="110" y="688" width="60" height="80" as="geometry" />
        </mxCell>
        <mxCell id="TG-YVFUVCGgv4PHO8d8e-288" value="&lt;font style=&quot;font-size: 14px;&quot; color=&quot;#ababab&quot;&gt;DQ&lt;/font&gt;&lt;div style=&quot;font-size: 14px;&quot;&gt;&lt;font color=&quot;#ababab&quot;&gt;x4&lt;/font&gt;&lt;/div&gt;" style="rounded=0;whiteSpace=wrap;html=1;strokeColor=#454744;fillColor=#464646;" vertex="1" parent="1">
          <mxGeometry x="190" y="688" width="60" height="80" as="geometry" />
        </mxCell>
        <mxCell id="TG-YVFUVCGgv4PHO8d8e-289" value="&lt;font style=&quot;font-size: 14px;&quot; color=&quot;#ababab&quot;&gt;ECC&lt;/font&gt;&lt;div style=&quot;font-size: 14px;&quot;&gt;&lt;font color=&quot;#ababab&quot;&gt;x4&lt;/font&gt;&lt;/div&gt;" style="rounded=0;whiteSpace=wrap;html=1;strokeColor=#454744;fillColor=#464646;" vertex="1" parent="1">
          <mxGeometry x="270" y="688" width="60" height="80" as="geometry" />
        </mxCell>
        <mxCell id="TG-YVFUVCGgv4PHO8d8e-290" style="edgeStyle=orthogonalEdgeStyle;rounded=0;orthogonalLoop=1;jettySize=auto;html=1;exitX=0.25;exitY=0;exitDx=0;exitDy=0;strokeWidth=2;strokeColor=#0a2ea6;endArrow=none;endFill=0;fillColor=#d5e8d4;fontColor=#0a2ea6;" edge="1" parent="1">
          <mxGeometry relative="1" as="geometry">
            <mxPoint x="650" y="247" as="sourcePoint" />
            <mxPoint x="1091" y="232.5" as="targetPoint" />
            <Array as="points">
              <mxPoint x="750" y="247" />
              <mxPoint x="750" y="232" />
            </Array>
          </mxGeometry>
        </mxCell>
        <mxCell id="TG-YVFUVCGgv4PHO8d8e-291" value="QBCA[13:0]_B" style="text;html=1;align=center;verticalAlign=middle;whiteSpace=wrap;rounded=0;fontColor=#0a2ea6;" vertex="1" parent="1">
          <mxGeometry x="658.5" y="223" width="81.5" height="30" as="geometry" />
        </mxCell>
        <mxCell id="TG-YVFUVCGgv4PHO8d8e-292" style="edgeStyle=orthogonalEdgeStyle;rounded=0;orthogonalLoop=1;jettySize=auto;html=1;exitX=0.25;exitY=0;exitDx=0;exitDy=0;strokeWidth=2;strokeColor=#0a2ea6;endArrow=none;endFill=0;entryX=0;entryY=0.5;entryDx=0;entryDy=0;fillColor=#d5e8d4;fontColor=#0a2ea6;" edge="1" parent="1">
          <mxGeometry relative="1" as="geometry">
            <mxPoint x="650" y="265" as="sourcePoint" />
            <mxPoint x="1091" y="278" as="targetPoint" />
            <Array as="points">
              <mxPoint x="650" y="260" />
              <mxPoint x="750" y="260" />
              <mxPoint x="750" y="278" />
            </Array>
          </mxGeometry>
        </mxCell>
        <mxCell id="TG-YVFUVCGgv4PHO8d8e-293" value="QACA[13:0]_B" style="text;html=1;align=center;verticalAlign=middle;whiteSpace=wrap;rounded=0;fontColor=#0a2ea6;" vertex="1" parent="1">
          <mxGeometry x="660" y="255" width="80" height="30" as="geometry" />
        </mxCell>
        <mxCell id="TG-YVFUVCGgv4PHO8d8e-294" style="edgeStyle=orthogonalEdgeStyle;rounded=0;orthogonalLoop=1;jettySize=auto;html=1;exitX=0.25;exitY=0;exitDx=0;exitDy=0;strokeWidth=2;strokeColor=#0a2ea6;endArrow=none;endFill=0;fillColor=#d5e8d4;fontColor=#0a2ea6;" edge="1" parent="1">
          <mxGeometry relative="1" as="geometry">
            <mxPoint x="650.5" y="768" as="sourcePoint" />
            <mxPoint x="1091.5" y="753.5" as="targetPoint" />
            <Array as="points">
              <mxPoint x="750.5" y="768" />
              <mxPoint x="750.5" y="753" />
            </Array>
          </mxGeometry>
        </mxCell>
        <mxCell id="TG-YVFUVCGgv4PHO8d8e-295" value="QACA[13:0]_B" style="text;html=1;align=center;verticalAlign=middle;whiteSpace=wrap;rounded=0;fontColor=#0a2ea6;" vertex="1" parent="1">
          <mxGeometry x="659" y="744" width="81.5" height="30" as="geometry" />
        </mxCell>
        <mxCell id="TG-YVFUVCGgv4PHO8d8e-296" style="edgeStyle=orthogonalEdgeStyle;rounded=0;orthogonalLoop=1;jettySize=auto;html=1;exitX=0.25;exitY=0;exitDx=0;exitDy=0;strokeWidth=2;strokeColor=#0a2ea6;endArrow=none;endFill=0;entryX=0;entryY=0.5;entryDx=0;entryDy=0;fillColor=#d5e8d4;fontColor=#0a2ea6;" edge="1" parent="1">
          <mxGeometry relative="1" as="geometry">
            <mxPoint x="650.5" y="786" as="sourcePoint" />
            <mxPoint x="1091.5" y="799" as="targetPoint" />
            <Array as="points">
              <mxPoint x="650.5" y="781" />
              <mxPoint x="750.5" y="781" />
              <mxPoint x="750.5" y="799" />
            </Array>
          </mxGeometry>
        </mxCell>
        <mxCell id="TG-YVFUVCGgv4PHO8d8e-297" value="QBCA[13:0]_B" style="text;html=1;align=center;verticalAlign=middle;whiteSpace=wrap;rounded=0;fontColor=#0a2ea6;" vertex="1" parent="1">
          <mxGeometry x="660.5" y="776" width="80" height="30" as="geometry" />
        </mxCell>
        <mxCell id="TG-YVFUVCGgv4PHO8d8e-298" value="&lt;font style=&quot;font-size: 14px;&quot; color=&quot;#ababab&quot;&gt;ECC&lt;/font&gt;&lt;div style=&quot;font-size: 14px;&quot;&gt;&lt;font color=&quot;#ababab&quot;&gt;x4&lt;/font&gt;&lt;/div&gt;" style="rounded=0;whiteSpace=wrap;html=1;strokeColor=#454744;fillColor=#464646;" vertex="1" parent="1">
          <mxGeometry x="771" y="168" width="60" height="80" as="geometry" />
        </mxCell>
        <mxCell id="TG-YVFUVCGgv4PHO8d8e-299" value="&lt;font style=&quot;font-size: 14px;&quot; color=&quot;#ababab&quot;&gt;DQ&lt;/font&gt;&lt;div style=&quot;font-size: 14px;&quot;&gt;&lt;font color=&quot;#ababab&quot;&gt;x4&lt;/font&gt;&lt;/div&gt;" style="rounded=0;whiteSpace=wrap;html=1;strokeColor=#454744;fillColor=#464646;" vertex="1" parent="1">
          <mxGeometry x="851" y="168" width="60" height="80" as="geometry" />
        </mxCell>
        <mxCell id="TG-YVFUVCGgv4PHO8d8e-300" value="&lt;font style=&quot;font-size: 14px;&quot; color=&quot;#ababab&quot;&gt;DQ&lt;/font&gt;&lt;div style=&quot;font-size: 14px;&quot;&gt;&lt;font color=&quot;#ababab&quot;&gt;x4&lt;/font&gt;&lt;/div&gt;" style="rounded=0;whiteSpace=wrap;html=1;strokeColor=#454744;fillColor=#464646;" vertex="1" parent="1">
          <mxGeometry x="931" y="168" width="60" height="80" as="geometry" />
        </mxCell>
        <mxCell id="TG-YVFUVCGgv4PHO8d8e-301" value="&lt;font style=&quot;font-size: 14px;&quot; color=&quot;#ababab&quot;&gt;DQ&lt;/font&gt;&lt;div style=&quot;font-size: 14px;&quot;&gt;&lt;font color=&quot;#ababab&quot;&gt;x4&lt;/font&gt;&lt;/div&gt;" style="rounded=0;whiteSpace=wrap;html=1;strokeColor=#454744;fillColor=#464646;" vertex="1" parent="1">
          <mxGeometry x="1011" y="168" width="60" height="80" as="geometry" />
        </mxCell>
        <mxCell id="TG-YVFUVCGgv4PHO8d8e-302" value="&lt;font style=&quot;font-size: 14px;&quot; color=&quot;#ababab&quot;&gt;DQ&lt;/font&gt;&lt;div style=&quot;font-size: 14px;&quot;&gt;&lt;font color=&quot;#ababab&quot;&gt;x4&lt;/font&gt;&lt;/div&gt;" style="rounded=0;whiteSpace=wrap;html=1;strokeColor=#454744;fillColor=#464646;" vertex="1" parent="1">
          <mxGeometry x="1091" y="168" width="60" height="80" as="geometry" />
        </mxCell>
        <mxCell id="TG-YVFUVCGgv4PHO8d8e-303" value="&lt;font style=&quot;font-size: 14px;&quot; color=&quot;#ababab&quot;&gt;ECC&lt;/font&gt;&lt;div style=&quot;font-size: 14px;&quot;&gt;&lt;font color=&quot;#ababab&quot;&gt;x4&lt;/font&gt;&lt;/div&gt;" style="rounded=0;whiteSpace=wrap;html=1;strokeColor=#454744;fillColor=#464646;" vertex="1" parent="1">
          <mxGeometry x="771" y="260" width="60" height="80" as="geometry" />
        </mxCell>
        <mxCell id="TG-YVFUVCGgv4PHO8d8e-304" value="&lt;font style=&quot;font-size: 14px;&quot; color=&quot;#ababab&quot;&gt;DQ&lt;/font&gt;&lt;div style=&quot;font-size: 14px;&quot;&gt;&lt;font color=&quot;#ababab&quot;&gt;x4&lt;/font&gt;&lt;/div&gt;" style="rounded=0;whiteSpace=wrap;html=1;strokeColor=#454744;fillColor=#464646;" vertex="1" parent="1">
          <mxGeometry x="851" y="260" width="60" height="80" as="geometry" />
        </mxCell>
        <mxCell id="TG-YVFUVCGgv4PHO8d8e-305" value="&lt;font style=&quot;font-size: 14px;&quot; color=&quot;#ababab&quot;&gt;DQ&lt;/font&gt;&lt;div style=&quot;font-size: 14px;&quot;&gt;&lt;font color=&quot;#ababab&quot;&gt;x4&lt;/font&gt;&lt;/div&gt;" style="rounded=0;whiteSpace=wrap;html=1;strokeColor=#454744;fillColor=#464646;" vertex="1" parent="1">
          <mxGeometry x="931" y="260" width="60" height="80" as="geometry" />
        </mxCell>
        <mxCell id="TG-YVFUVCGgv4PHO8d8e-306" value="&lt;font style=&quot;font-size: 14px;&quot; color=&quot;#ababab&quot;&gt;DQ&lt;/font&gt;&lt;div style=&quot;font-size: 14px;&quot;&gt;&lt;font color=&quot;#ababab&quot;&gt;x4&lt;/font&gt;&lt;/div&gt;" style="rounded=0;whiteSpace=wrap;html=1;strokeColor=#454744;fillColor=#464646;" vertex="1" parent="1">
          <mxGeometry x="1011" y="260" width="60" height="80" as="geometry" />
        </mxCell>
        <mxCell id="TG-YVFUVCGgv4PHO8d8e-307" value="&lt;font style=&quot;font-size: 14px;&quot; color=&quot;#ababab&quot;&gt;DQ&lt;/font&gt;&lt;div style=&quot;font-size: 14px;&quot;&gt;&lt;font color=&quot;#ababab&quot;&gt;x4&lt;/font&gt;&lt;/div&gt;" style="rounded=0;whiteSpace=wrap;html=1;strokeColor=#454744;fillColor=#464646;" vertex="1" parent="1">
          <mxGeometry x="1091" y="260" width="60" height="80" as="geometry" />
        </mxCell>
        <mxCell id="TG-YVFUVCGgv4PHO8d8e-308" value="&lt;font style=&quot;font-size: 14px;&quot; color=&quot;#ababab&quot;&gt;ECC&lt;/font&gt;&lt;div style=&quot;font-size: 14px;&quot;&gt;&lt;font color=&quot;#ababab&quot;&gt;x4&lt;/font&gt;&lt;/div&gt;" style="rounded=0;whiteSpace=wrap;html=1;strokeColor=#454744;fillColor=#464646;" vertex="1" parent="1">
          <mxGeometry x="771" y="688" width="60" height="80" as="geometry" />
        </mxCell>
        <mxCell id="TG-YVFUVCGgv4PHO8d8e-309" value="&lt;font style=&quot;font-size: 14px;&quot; color=&quot;#ababab&quot;&gt;DQ&lt;/font&gt;&lt;div style=&quot;font-size: 14px;&quot;&gt;&lt;font color=&quot;#ababab&quot;&gt;x4&lt;/font&gt;&lt;/div&gt;" style="rounded=0;whiteSpace=wrap;html=1;strokeColor=#454744;fillColor=#464646;" vertex="1" parent="1">
          <mxGeometry x="851" y="688" width="60" height="80" as="geometry" />
        </mxCell>
        <mxCell id="TG-YVFUVCGgv4PHO8d8e-310" value="&lt;font style=&quot;font-size: 14px;&quot; color=&quot;#ababab&quot;&gt;DQ&lt;/font&gt;&lt;div style=&quot;font-size: 14px;&quot;&gt;&lt;font color=&quot;#ababab&quot;&gt;x4&lt;/font&gt;&lt;/div&gt;" style="rounded=0;whiteSpace=wrap;html=1;strokeColor=#454744;fillColor=#464646;" vertex="1" parent="1">
          <mxGeometry x="931" y="688" width="60" height="80" as="geometry" />
        </mxCell>
        <mxCell id="TG-YVFUVCGgv4PHO8d8e-311" value="&lt;font style=&quot;font-size: 14px;&quot; color=&quot;#ababab&quot;&gt;DQ&lt;/font&gt;&lt;div style=&quot;font-size: 14px;&quot;&gt;&lt;font color=&quot;#ababab&quot;&gt;x4&lt;/font&gt;&lt;/div&gt;" style="rounded=0;whiteSpace=wrap;html=1;strokeColor=#454744;fillColor=#464646;" vertex="1" parent="1">
          <mxGeometry x="1011" y="688" width="60" height="80" as="geometry" />
        </mxCell>
        <mxCell id="TG-YVFUVCGgv4PHO8d8e-312" value="&lt;font style=&quot;font-size: 14px;&quot; color=&quot;#ababab&quot;&gt;DQ&lt;/font&gt;&lt;div style=&quot;font-size: 14px;&quot;&gt;&lt;font color=&quot;#ababab&quot;&gt;x4&lt;/font&gt;&lt;/div&gt;" style="rounded=0;whiteSpace=wrap;html=1;strokeColor=#454744;fillColor=#464646;" vertex="1" parent="1">
          <mxGeometry x="1091" y="688" width="60" height="80" as="geometry" />
        </mxCell>
        <mxCell id="TG-YVFUVCGgv4PHO8d8e-313" value="&lt;font style=&quot;font-size: 14px;&quot; color=&quot;#ababab&quot;&gt;ECC&lt;/font&gt;&lt;div style=&quot;font-size: 14px;&quot;&gt;&lt;font color=&quot;#ababab&quot;&gt;x4&lt;/font&gt;&lt;/div&gt;" style="rounded=0;whiteSpace=wrap;html=1;strokeColor=#454744;fillColor=#464646;" vertex="1" parent="1">
          <mxGeometry x="771" y="780" width="60" height="80" as="geometry" />
        </mxCell>
        <mxCell id="TG-YVFUVCGgv4PHO8d8e-314" value="&lt;font style=&quot;font-size: 14px;&quot; color=&quot;#ababab&quot;&gt;DQ&lt;/font&gt;&lt;div style=&quot;font-size: 14px;&quot;&gt;&lt;font color=&quot;#ababab&quot;&gt;x4&lt;/font&gt;&lt;/div&gt;" style="rounded=0;whiteSpace=wrap;html=1;strokeColor=#454744;fillColor=#464646;" vertex="1" parent="1">
          <mxGeometry x="851" y="780" width="60" height="80" as="geometry" />
        </mxCell>
        <mxCell id="TG-YVFUVCGgv4PHO8d8e-315" value="&lt;font style=&quot;font-size: 14px;&quot; color=&quot;#ababab&quot;&gt;DQ&lt;/font&gt;&lt;div style=&quot;font-size: 14px;&quot;&gt;&lt;font color=&quot;#ababab&quot;&gt;x4&lt;/font&gt;&lt;/div&gt;" style="rounded=0;whiteSpace=wrap;html=1;strokeColor=#454744;fillColor=#464646;" vertex="1" parent="1">
          <mxGeometry x="931" y="780" width="60" height="80" as="geometry" />
        </mxCell>
        <mxCell id="TG-YVFUVCGgv4PHO8d8e-316" value="&lt;font style=&quot;font-size: 14px;&quot; color=&quot;#ababab&quot;&gt;DQ&lt;/font&gt;&lt;div style=&quot;font-size: 14px;&quot;&gt;&lt;font color=&quot;#ababab&quot;&gt;x4&lt;/font&gt;&lt;/div&gt;" style="rounded=0;whiteSpace=wrap;html=1;strokeColor=#454744;fillColor=#464646;" vertex="1" parent="1">
          <mxGeometry x="1011" y="780" width="60" height="80" as="geometry" />
        </mxCell>
        <mxCell id="TG-YVFUVCGgv4PHO8d8e-317" value="&lt;font style=&quot;font-size: 14px;&quot; color=&quot;#ababab&quot;&gt;DQ&lt;/font&gt;&lt;div style=&quot;font-size: 14px;&quot;&gt;&lt;font color=&quot;#ababab&quot;&gt;x4&lt;/font&gt;&lt;/div&gt;" style="rounded=0;whiteSpace=wrap;html=1;strokeColor=#454744;fillColor=#464646;" vertex="1" parent="1">
          <mxGeometry x="1091" y="780" width="60" height="80" as="geometry" />
        </mxCell>
        <mxCell id="TG-YVFUVCGgv4PHO8d8e-318" value="(c) shingaridavesh@gmail.com" style="text;html=1;align=center;verticalAlign=middle;whiteSpace=wrap;rounded=0;fontSize=36;fontColor=#f2eeee;rotation=0;textOpacity=10;" vertex="1" parent="1">
          <mxGeometry x="110" y="650" width="870" height="30" as="geometry" />
        </mxCell>
        <mxCell id="TG-YVFUVCGgv4PHO8d8e-319" value="(c) shingaridavesh@gmail.com" style="text;html=1;align=center;verticalAlign=middle;whiteSpace=wrap;rounded=0;fontSize=36;fontColor=#f2eeee;rotation=0;textOpacity=10;" vertex="1" parent="1">
          <mxGeometry x="110" y="340" width="870" height="30" as="geometry" />
        </mxCell>
        <mxCell id="TG-YVFUVCGgv4PHO8d8e-342" style="edgeStyle=orthogonalEdgeStyle;rounded=0;orthogonalLoop=1;jettySize=auto;html=1;fillColor=#ffe6cc;strokeColor=#d79b00;strokeWidth=3;" edge="1" parent="1">
          <mxGeometry relative="1" as="geometry">
            <mxPoint x="-50" y="1100" as="targetPoint" />
            <mxPoint x="47" y="1100" as="sourcePoint" />
          </mxGeometry>
        </mxCell>
        <mxCell id="TG-YVFUVCGgv4PHO8d8e-328" value="&lt;font style=&quot;font-size: 14px;&quot; color=&quot;#ababab&quot;&gt;&lt;b&gt;RCD&lt;/b&gt;&lt;/font&gt;" style="rounded=0;whiteSpace=wrap;html=1;strokeColor=#454744;fillColor=#464646;direction=south;" vertex="1" parent="1">
          <mxGeometry x="47" y="1080" width="200" height="130" as="geometry" />
        </mxCell>
        <mxCell id="TG-YVFUVCGgv4PHO8d8e-329" value="" style="endArrow=classic;html=1;rounded=0;strokeWidth=5;fillColor=#ffe6cc;strokeColor=#d79b00;" edge="1" parent="1">
          <mxGeometry width="50" height="50" relative="1" as="geometry">
            <mxPoint x="66.66000000000003" y="1340" as="sourcePoint" />
            <mxPoint x="66.66000000000003" y="1210" as="targetPoint" />
          </mxGeometry>
        </mxCell>
        <mxCell id="TG-YVFUVCGgv4PHO8d8e-330" value="" style="endArrow=classic;html=1;rounded=0;strokeWidth=4;fillColor=#dae8fc;strokeColor=#6c8ebf;textOpacity=50;opacity=50;" edge="1" parent="1">
          <mxGeometry width="50" height="50" relative="1" as="geometry">
            <mxPoint x="163" y="1340" as="sourcePoint" />
            <mxPoint x="163" y="1210" as="targetPoint" />
          </mxGeometry>
        </mxCell>
        <mxCell id="TG-YVFUVCGgv4PHO8d8e-331" value="DCK" style="text;html=1;align=center;verticalAlign=middle;whiteSpace=wrap;rounded=0;fontColor=#d79b00;fontStyle=1;fontSize=14;" vertex="1" parent="1">
          <mxGeometry x="52" y="1340" width="35" height="20" as="geometry" />
        </mxCell>
        <mxCell id="TG-YVFUVCGgv4PHO8d8e-332" value="" style="endArrow=classic;html=1;rounded=0;exitX=1;exitY=1;exitDx=0;exitDy=0;strokeWidth=4;fillColor=#f8cecc;strokeColor=#b85450;textOpacity=50;opacity=50;" edge="1" parent="1">
          <mxGeometry width="50" height="50" relative="1" as="geometry">
            <mxPoint x="188" y="1370" as="sourcePoint" />
            <mxPoint x="188" y="1210" as="targetPoint" />
          </mxGeometry>
        </mxCell>
        <mxCell id="TG-YVFUVCGgv4PHO8d8e-333" value="" style="endArrow=classic;html=1;rounded=0;strokeWidth=4;fillColor=#d5e8d4;strokeColor=#82b366;textOpacity=50;opacity=50;" edge="1" parent="1">
          <mxGeometry width="50" height="50" relative="1" as="geometry">
            <mxPoint x="212" y="1400" as="sourcePoint" />
            <mxPoint x="212.30999999999995" y="1210" as="targetPoint" />
          </mxGeometry>
        </mxCell>
        <mxCell id="TG-YVFUVCGgv4PHO8d8e-334" value="" style="endArrow=classic;html=1;rounded=0;strokeWidth=4;fillColor=#e1d5e7;strokeColor=#9673a6;textOpacity=50;opacity=50;" edge="1" parent="1">
          <mxGeometry width="50" height="50" relative="1" as="geometry">
            <mxPoint x="232" y="1440" as="sourcePoint" />
            <mxPoint x="232.30999999999995" y="1210" as="targetPoint" />
          </mxGeometry>
        </mxCell>
        <mxCell id="TG-YVFUVCGgv4PHO8d8e-335" value="&lt;span style=&quot;font-family: Helvetica; font-size: 14px; font-style: normal; font-variant-ligatures: normal; font-variant-caps: normal; font-weight: 700; letter-spacing: normal; orphans: 2; text-align: center; text-indent: 0px; text-transform: none; widows: 2; word-spacing: 0px; -webkit-text-stroke-width: 0px; white-space: normal; background-color: rgb(251, 251, 251); text-decoration-thickness: initial; text-decoration-style: initial; text-decoration-color: initial; float: none; display: inline !important;&quot;&gt;DCS0_A_n&lt;/span&gt;" style="text;whiteSpace=wrap;html=1;fontColor=#6c8ebf;textOpacity=50;opacity=50;" vertex="1" parent="1">
          <mxGeometry x="110" y="1340" width="80" height="30" as="geometry" />
        </mxCell>
        <mxCell id="TG-YVFUVCGgv4PHO8d8e-336" value="&lt;span style=&quot;color: rgb(184, 84, 80); font-family: Helvetica; font-size: 14px; font-style: normal; font-variant-ligatures: normal; font-variant-caps: normal; font-weight: 700; letter-spacing: normal; orphans: 2; text-align: center; text-indent: 0px; text-transform: none; widows: 2; word-spacing: 0px; -webkit-text-stroke-width: 0px; white-space: normal; background-color: rgb(251, 251, 251); text-decoration-thickness: initial; text-decoration-style: initial; text-decoration-color: initial; display: inline !important; float: none;&quot;&gt;DCS1_A_n&lt;/span&gt;" style="text;whiteSpace=wrap;html=1;textOpacity=50;opacity=50;" vertex="1" parent="1">
          <mxGeometry x="133" y="1370" width="80" height="20" as="geometry" />
        </mxCell>
        <mxCell id="TG-YVFUVCGgv4PHO8d8e-337" value="&lt;span style=&quot;font-family: Helvetica; font-size: 14px; font-style: normal; font-variant-ligatures: normal; font-variant-caps: normal; font-weight: 700; letter-spacing: normal; orphans: 2; text-align: center; text-indent: 0px; text-transform: none; widows: 2; word-spacing: 0px; -webkit-text-stroke-width: 0px; white-space: normal; background-color: rgb(251, 251, 251); text-decoration-thickness: initial; text-decoration-style: initial; text-decoration-color: initial; float: none; display: inline !important;&quot;&gt;DCS0_B_n&lt;/span&gt;" style="text;whiteSpace=wrap;html=1;fontColor=#82b366;textOpacity=50;opacity=50;" vertex="1" parent="1">
          <mxGeometry x="156" y="1400" width="80" height="30" as="geometry" />
        </mxCell>
        <mxCell id="TG-YVFUVCGgv4PHO8d8e-338" value="" style="endArrow=classic;html=1;rounded=0;strokeWidth=4;fillColor=#ffe6cc;strokeColor=#0aa7f5;textOpacity=50;opacity=50;" edge="1" parent="1">
          <mxGeometry width="50" height="50" relative="1" as="geometry">
            <mxPoint x="62" y="1430" as="sourcePoint" />
            <mxPoint x="92" y="1210" as="targetPoint" />
            <Array as="points">
              <mxPoint x="62" y="1410" />
              <mxPoint x="92" y="1410" />
              <mxPoint x="92" y="1320" />
            </Array>
          </mxGeometry>
        </mxCell>
        <mxCell id="TG-YVFUVCGgv4PHO8d8e-339" value="" style="endArrow=classic;html=1;rounded=0;strokeWidth=4;fillColor=#fff2cc;strokeColor=#082fa6;textOpacity=50;opacity=50;" edge="1" parent="1">
          <mxGeometry width="50" height="50" relative="1" as="geometry">
            <mxPoint x="132" y="1430" as="sourcePoint" />
            <mxPoint x="108" y="1210" as="targetPoint" />
            <Array as="points">
              <mxPoint x="132" y="1410" />
              <mxPoint x="108" y="1410" />
              <mxPoint x="108" y="1320" />
            </Array>
          </mxGeometry>
        </mxCell>
        <mxCell id="TG-YVFUVCGgv4PHO8d8e-340" value="&lt;span style=&quot;font-size: 14px; font-weight: 700; text-align: center;&quot;&gt;&lt;font&gt;DCA[6:0]_A&lt;/font&gt;&lt;/span&gt;" style="text;whiteSpace=wrap;html=1;fontColor=#0aa7f5;fontSize=12;textOpacity=50;opacity=50;" vertex="1" parent="1">
          <mxGeometry x="22" y="1430" width="80" height="30" as="geometry" />
        </mxCell>
        <mxCell id="TG-YVFUVCGgv4PHO8d8e-341" value="&lt;span style=&quot;font-size: 14px; font-weight: 700; text-align: center;&quot;&gt;DCA[6:0]_B&lt;/span&gt;" style="text;whiteSpace=wrap;html=1;fontColor=#0a2ea6;fontSize=12;fontFamily=Helvetica;textOpacity=50;opacity=50;" vertex="1" parent="1">
          <mxGeometry x="102" y="1430" width="80" height="30" as="geometry" />
        </mxCell>
        <mxCell id="TG-YVFUVCGgv4PHO8d8e-344" style="edgeStyle=orthogonalEdgeStyle;rounded=0;orthogonalLoop=1;jettySize=auto;html=1;fillColor=#ffe6cc;strokeColor=#d79b00;strokeWidth=3;" edge="1" parent="1">
          <mxGeometry relative="1" as="geometry">
            <mxPoint x="-50" y="1130" as="targetPoint" />
            <mxPoint x="47" y="1130" as="sourcePoint" />
          </mxGeometry>
        </mxCell>
        <mxCell id="TG-YVFUVCGgv4PHO8d8e-345" style="edgeStyle=orthogonalEdgeStyle;rounded=0;orthogonalLoop=1;jettySize=auto;html=1;fillColor=#ffe6cc;strokeColor=#d79b00;strokeWidth=3;" edge="1" parent="1">
          <mxGeometry relative="1" as="geometry">
            <mxPoint x="-50" y="1160" as="targetPoint" />
            <mxPoint x="47" y="1160" as="sourcePoint" />
          </mxGeometry>
        </mxCell>
        <mxCell id="TG-YVFUVCGgv4PHO8d8e-346" style="edgeStyle=orthogonalEdgeStyle;rounded=0;orthogonalLoop=1;jettySize=auto;html=1;fillColor=#ffe6cc;strokeColor=#d79b00;strokeWidth=3;" edge="1" parent="1">
          <mxGeometry relative="1" as="geometry">
            <mxPoint x="-50.5" y="1190" as="targetPoint" />
            <mxPoint x="46.5" y="1190" as="sourcePoint" />
          </mxGeometry>
        </mxCell>
        <mxCell id="TG-YVFUVCGgv4PHO8d8e-347" value="QDCK_A_t/c" style="text;html=1;align=center;verticalAlign=middle;whiteSpace=wrap;rounded=0;fontColor=#FFB570;fontStyle=1;fontSize=14;" vertex="1" parent="1">
          <mxGeometry x="-142" y="1090" width="92" height="20" as="geometry" />
        </mxCell>
        <mxCell id="TG-YVFUVCGgv4PHO8d8e-348" value="QBCK_A_t/c" style="text;html=1;align=center;verticalAlign=middle;whiteSpace=wrap;rounded=0;fontColor=#FFB570;fontStyle=1;fontSize=14;" vertex="1" parent="1">
          <mxGeometry x="-140" y="1120" width="92" height="20" as="geometry" />
        </mxCell>
        <mxCell id="TG-YVFUVCGgv4PHO8d8e-349" value="QACK_A_t/c" style="text;html=1;align=center;verticalAlign=middle;whiteSpace=wrap;rounded=0;fontColor=#FFB570;fontStyle=1;fontSize=14;" vertex="1" parent="1">
          <mxGeometry x="-140" y="1150" width="92" height="20" as="geometry" />
        </mxCell>
        <mxCell id="TG-YVFUVCGgv4PHO8d8e-350" value="QCCK_A_t/c" style="text;html=1;align=center;verticalAlign=middle;whiteSpace=wrap;rounded=0;fontColor=#FFB570;fontStyle=1;fontSize=14;" vertex="1" parent="1">
          <mxGeometry x="-142" y="1180" width="92" height="20" as="geometry" />
        </mxCell>
        <mxCell id="TG-YVFUVCGgv4PHO8d8e-351" style="edgeStyle=orthogonalEdgeStyle;rounded=0;orthogonalLoop=1;jettySize=auto;html=1;fillColor=#ffe6cc;strokeColor=#d79b00;strokeWidth=3;endArrow=none;startFill=1;startArrow=classic;" edge="1" parent="1">
          <mxGeometry relative="1" as="geometry">
            <mxPoint x="248" y="1100" as="targetPoint" />
            <mxPoint x="345" y="1100" as="sourcePoint" />
          </mxGeometry>
        </mxCell>
        <mxCell id="TG-YVFUVCGgv4PHO8d8e-352" style="edgeStyle=orthogonalEdgeStyle;rounded=0;orthogonalLoop=1;jettySize=auto;html=1;fillColor=#ffe6cc;strokeColor=#d79b00;strokeWidth=3;endArrow=none;startFill=1;startArrow=classic;" edge="1" parent="1">
          <mxGeometry relative="1" as="geometry">
            <mxPoint x="248" y="1130" as="targetPoint" />
            <mxPoint x="345" y="1130" as="sourcePoint" />
          </mxGeometry>
        </mxCell>
        <mxCell id="TG-YVFUVCGgv4PHO8d8e-353" style="edgeStyle=orthogonalEdgeStyle;rounded=0;orthogonalLoop=1;jettySize=auto;html=1;fillColor=#ffe6cc;strokeColor=#d79b00;strokeWidth=3;endArrow=none;startFill=1;startArrow=classic;" edge="1" parent="1">
          <mxGeometry relative="1" as="geometry">
            <mxPoint x="248" y="1160" as="targetPoint" />
            <mxPoint x="345" y="1160" as="sourcePoint" />
          </mxGeometry>
        </mxCell>
        <mxCell id="TG-YVFUVCGgv4PHO8d8e-354" style="edgeStyle=orthogonalEdgeStyle;rounded=0;orthogonalLoop=1;jettySize=auto;html=1;fillColor=#ffe6cc;strokeColor=#d79b00;strokeWidth=3;endArrow=none;startFill=1;startArrow=classic;" edge="1" parent="1">
          <mxGeometry relative="1" as="geometry">
            <mxPoint x="247.5" y="1190" as="targetPoint" />
            <mxPoint x="344.5" y="1190" as="sourcePoint" />
          </mxGeometry>
        </mxCell>
        <mxCell id="TG-YVFUVCGgv4PHO8d8e-355" value="QDCK_B_t/c" style="text;html=1;align=center;verticalAlign=middle;whiteSpace=wrap;rounded=0;fontColor=#FFB570;fontStyle=1;fontSize=14;" vertex="1" parent="1">
          <mxGeometry x="344" y="1090" width="92" height="20" as="geometry" />
        </mxCell>
        <mxCell id="TG-YVFUVCGgv4PHO8d8e-356" value="QBCK_B_t/c" style="text;html=1;align=center;verticalAlign=middle;whiteSpace=wrap;rounded=0;fontColor=#FFB570;fontStyle=1;fontSize=14;" vertex="1" parent="1">
          <mxGeometry x="346" y="1120" width="92" height="20" as="geometry" />
        </mxCell>
        <mxCell id="TG-YVFUVCGgv4PHO8d8e-357" value="QACK_B_t/c" style="text;html=1;align=center;verticalAlign=middle;whiteSpace=wrap;rounded=0;fontColor=#FFB570;fontStyle=1;fontSize=14;" vertex="1" parent="1">
          <mxGeometry x="346" y="1150" width="92" height="20" as="geometry" />
        </mxCell>
        <mxCell id="TG-YVFUVCGgv4PHO8d8e-358" value="QCCK_B_t/c" style="text;html=1;align=center;verticalAlign=middle;whiteSpace=wrap;rounded=0;fontColor=#FFB570;fontStyle=1;fontSize=14;" vertex="1" parent="1">
          <mxGeometry x="344" y="1180" width="92" height="20" as="geometry" />
        </mxCell>
        <mxCell id="TG-YVFUVCGgv4PHO8d8e-359" style="edgeStyle=orthogonalEdgeStyle;rounded=0;orthogonalLoop=1;jettySize=auto;html=1;fillColor=#ffe6cc;strokeColor=light-dark(#b85450, #996500);strokeWidth=3;" edge="1" parent="1">
          <mxGeometry relative="1" as="geometry">
            <mxPoint x="575" y="1100" as="targetPoint" />
            <mxPoint x="672" y="1100" as="sourcePoint" />
          </mxGeometry>
        </mxCell>
        <mxCell id="TG-YVFUVCGgv4PHO8d8e-360" value="&lt;font style=&quot;font-size: 14px;&quot; color=&quot;#ababab&quot;&gt;&lt;b&gt;RCD&lt;/b&gt;&lt;/font&gt;" style="rounded=0;whiteSpace=wrap;html=1;strokeColor=#454744;fillColor=#464646;direction=south;" vertex="1" parent="1">
          <mxGeometry x="672" y="1080" width="200" height="130" as="geometry" />
        </mxCell>
        <mxCell id="TG-YVFUVCGgv4PHO8d8e-361" value="" style="endArrow=classic;html=1;rounded=0;strokeWidth=4;fillColor=#ffe6cc;strokeColor=#d79b00;opacity=50;" edge="1" parent="1">
          <mxGeometry width="50" height="50" relative="1" as="geometry">
            <mxPoint x="691.6600000000001" y="1340" as="sourcePoint" />
            <mxPoint x="691.6600000000001" y="1210" as="targetPoint" />
          </mxGeometry>
        </mxCell>
        <mxCell id="TG-YVFUVCGgv4PHO8d8e-362" value="" style="endArrow=classic;html=1;rounded=0;strokeWidth=4;fillColor=#dae8fc;strokeColor=#6c8ebf;" edge="1" parent="1">
          <mxGeometry width="50" height="50" relative="1" as="geometry">
            <mxPoint x="788" y="1340" as="sourcePoint" />
            <mxPoint x="788" y="1210" as="targetPoint" />
          </mxGeometry>
        </mxCell>
        <mxCell id="TG-YVFUVCGgv4PHO8d8e-363" value="DCK" style="text;html=1;align=center;verticalAlign=middle;whiteSpace=wrap;rounded=0;fontColor=#d79b00;fontStyle=1;fontSize=14;textOpacity=50;" vertex="1" parent="1">
          <mxGeometry x="677" y="1340" width="35" height="20" as="geometry" />
        </mxCell>
        <mxCell id="TG-YVFUVCGgv4PHO8d8e-364" value="" style="endArrow=classic;html=1;rounded=0;exitX=1;exitY=1;exitDx=0;exitDy=0;strokeWidth=4;fillColor=#f8cecc;strokeColor=#b85450;" edge="1" parent="1">
          <mxGeometry width="50" height="50" relative="1" as="geometry">
            <mxPoint x="813" y="1370" as="sourcePoint" />
            <mxPoint x="813" y="1210" as="targetPoint" />
          </mxGeometry>
        </mxCell>
        <mxCell id="TG-YVFUVCGgv4PHO8d8e-365" value="" style="endArrow=classic;html=1;rounded=0;strokeWidth=4;fillColor=#d5e8d4;strokeColor=#82b366;" edge="1" parent="1">
          <mxGeometry width="50" height="50" relative="1" as="geometry">
            <mxPoint x="837" y="1400" as="sourcePoint" />
            <mxPoint x="837.31" y="1210" as="targetPoint" />
          </mxGeometry>
        </mxCell>
        <mxCell id="TG-YVFUVCGgv4PHO8d8e-366" value="" style="endArrow=classic;html=1;rounded=0;strokeWidth=4;fillColor=#e1d5e7;strokeColor=#9673a6;" edge="1" parent="1">
          <mxGeometry width="50" height="50" relative="1" as="geometry">
            <mxPoint x="857" y="1440" as="sourcePoint" />
            <mxPoint x="857.31" y="1210" as="targetPoint" />
          </mxGeometry>
        </mxCell>
        <mxCell id="TG-YVFUVCGgv4PHO8d8e-367" value="&lt;span style=&quot;font-family: Helvetica; font-size: 14px; font-style: normal; font-variant-ligatures: normal; font-variant-caps: normal; font-weight: 700; letter-spacing: normal; orphans: 2; text-align: center; text-indent: 0px; text-transform: none; widows: 2; word-spacing: 0px; -webkit-text-stroke-width: 0px; white-space: normal; background-color: rgb(251, 251, 251); text-decoration-thickness: initial; text-decoration-style: initial; text-decoration-color: initial; float: none; display: inline !important;&quot;&gt;DCS0_A_n&lt;/span&gt;" style="text;whiteSpace=wrap;html=1;fontColor=#6c8ebf;" vertex="1" parent="1">
          <mxGeometry x="735" y="1340" width="80" height="30" as="geometry" />
        </mxCell>
        <mxCell id="TG-YVFUVCGgv4PHO8d8e-368" value="&lt;span style=&quot;color: rgb(184, 84, 80); font-family: Helvetica; font-size: 14px; font-style: normal; font-variant-ligatures: normal; font-variant-caps: normal; font-weight: 700; letter-spacing: normal; orphans: 2; text-align: center; text-indent: 0px; text-transform: none; widows: 2; word-spacing: 0px; -webkit-text-stroke-width: 0px; white-space: normal; background-color: rgb(251, 251, 251); text-decoration-thickness: initial; text-decoration-style: initial; text-decoration-color: initial; display: inline !important; float: none;&quot;&gt;DCS1_A_n&lt;/span&gt;" style="text;whiteSpace=wrap;html=1;" vertex="1" parent="1">
          <mxGeometry x="758" y="1370" width="80" height="20" as="geometry" />
        </mxCell>
        <mxCell id="TG-YVFUVCGgv4PHO8d8e-369" value="&lt;span style=&quot;font-family: Helvetica; font-size: 14px; font-style: normal; font-variant-ligatures: normal; font-variant-caps: normal; font-weight: 700; letter-spacing: normal; orphans: 2; text-align: center; text-indent: 0px; text-transform: none; widows: 2; word-spacing: 0px; -webkit-text-stroke-width: 0px; white-space: normal; background-color: rgb(251, 251, 251); text-decoration-thickness: initial; text-decoration-style: initial; text-decoration-color: initial; float: none; display: inline !important;&quot;&gt;DCS0_B_n&lt;/span&gt;" style="text;whiteSpace=wrap;html=1;fontColor=#82b366;" vertex="1" parent="1">
          <mxGeometry x="781" y="1400" width="80" height="30" as="geometry" />
        </mxCell>
        <mxCell id="TG-YVFUVCGgv4PHO8d8e-370" value="" style="endArrow=classic;html=1;rounded=0;strokeWidth=4;fillColor=#ffe6cc;strokeColor=#0aa7f5;opacity=50;" edge="1" parent="1">
          <mxGeometry width="50" height="50" relative="1" as="geometry">
            <mxPoint x="687" y="1430" as="sourcePoint" />
            <mxPoint x="717" y="1210" as="targetPoint" />
            <Array as="points">
              <mxPoint x="687" y="1410" />
              <mxPoint x="717" y="1410" />
              <mxPoint x="717" y="1320" />
            </Array>
          </mxGeometry>
        </mxCell>
        <mxCell id="TG-YVFUVCGgv4PHO8d8e-371" value="" style="endArrow=classic;html=1;rounded=0;strokeWidth=4;fillColor=#fff2cc;strokeColor=#082fa6;opacity=50;" edge="1" parent="1">
          <mxGeometry width="50" height="50" relative="1" as="geometry">
            <mxPoint x="757" y="1430" as="sourcePoint" />
            <mxPoint x="733" y="1210" as="targetPoint" />
            <Array as="points">
              <mxPoint x="757" y="1410" />
              <mxPoint x="733" y="1410" />
              <mxPoint x="733" y="1320" />
            </Array>
          </mxGeometry>
        </mxCell>
        <mxCell id="TG-YVFUVCGgv4PHO8d8e-372" value="&lt;span style=&quot;font-size: 14px; font-weight: 700; text-align: center;&quot;&gt;&lt;font&gt;DCA[6:0]_A&lt;/font&gt;&lt;/span&gt;" style="text;whiteSpace=wrap;html=1;fontColor=#0aa7f5;fontSize=12;textOpacity=50;" vertex="1" parent="1">
          <mxGeometry x="647" y="1430" width="80" height="30" as="geometry" />
        </mxCell>
        <mxCell id="TG-YVFUVCGgv4PHO8d8e-373" value="&lt;span style=&quot;font-size: 14px; font-weight: 700; text-align: center;&quot;&gt;DCA[6:0]_B&lt;/span&gt;" style="text;whiteSpace=wrap;html=1;fontColor=#0a2ea6;fontSize=12;fontFamily=Helvetica;textOpacity=50;" vertex="1" parent="1">
          <mxGeometry x="727" y="1430" width="80" height="30" as="geometry" />
        </mxCell>
        <mxCell id="TG-YVFUVCGgv4PHO8d8e-374" style="edgeStyle=orthogonalEdgeStyle;rounded=0;orthogonalLoop=1;jettySize=auto;html=1;fillColor=#ffe6cc;strokeColor=light-dark(#6c8ebf, #996500);strokeWidth=3;" edge="1" parent="1">
          <mxGeometry relative="1" as="geometry">
            <mxPoint x="575" y="1130" as="targetPoint" />
            <mxPoint x="672" y="1130" as="sourcePoint" />
          </mxGeometry>
        </mxCell>
        <mxCell id="TG-YVFUVCGgv4PHO8d8e-375" style="edgeStyle=orthogonalEdgeStyle;rounded=0;orthogonalLoop=1;jettySize=auto;html=1;fillColor=#ffe6cc;strokeColor=light-dark(#6c8ebf, #996500);strokeWidth=3;" edge="1" parent="1">
          <mxGeometry relative="1" as="geometry">
            <mxPoint x="575" y="1160" as="targetPoint" />
            <mxPoint x="672" y="1160" as="sourcePoint" />
          </mxGeometry>
        </mxCell>
        <mxCell id="TG-YVFUVCGgv4PHO8d8e-376" style="edgeStyle=orthogonalEdgeStyle;rounded=0;orthogonalLoop=1;jettySize=auto;html=1;fillColor=#ffe6cc;strokeColor=light-dark(#b85450, #996500);strokeWidth=3;" edge="1" parent="1">
          <mxGeometry relative="1" as="geometry">
            <mxPoint x="574.5" y="1190" as="targetPoint" />
            <mxPoint x="671.5" y="1190" as="sourcePoint" />
          </mxGeometry>
        </mxCell>
        <mxCell id="TG-YVFUVCGgv4PHO8d8e-377" value="QBCS1_A" style="text;html=1;align=center;verticalAlign=middle;whiteSpace=wrap;rounded=0;fontColor=light-dark(#b85450, #7e3f03);fontStyle=1;fontSize=14;" vertex="1" parent="1">
          <mxGeometry x="483" y="1090" width="92" height="20" as="geometry" />
        </mxCell>
        <mxCell id="TG-YVFUVCGgv4PHO8d8e-378" value="QBCS0_A" style="text;html=1;align=center;verticalAlign=middle;whiteSpace=wrap;rounded=0;fontColor=light-dark(#6c8ebf, #7e3f03);fontStyle=1;fontSize=14;" vertex="1" parent="1">
          <mxGeometry x="485" y="1120" width="92" height="20" as="geometry" />
        </mxCell>
        <mxCell id="TG-YVFUVCGgv4PHO8d8e-379" value="QACS0_A" style="text;html=1;align=center;verticalAlign=middle;whiteSpace=wrap;rounded=0;fontColor=light-dark(#6c8ebf, #7e3f03);fontStyle=1;fontSize=14;" vertex="1" parent="1">
          <mxGeometry x="485" y="1150" width="92" height="20" as="geometry" />
        </mxCell>
        <mxCell id="TG-YVFUVCGgv4PHO8d8e-380" value="QACS1_A" style="text;html=1;align=center;verticalAlign=middle;whiteSpace=wrap;rounded=0;fontColor=light-dark(#b85450, #7e3f03);fontStyle=1;fontSize=14;" vertex="1" parent="1">
          <mxGeometry x="483" y="1180" width="92" height="20" as="geometry" />
        </mxCell>
        <mxCell id="TG-YVFUVCGgv4PHO8d8e-381" style="edgeStyle=orthogonalEdgeStyle;rounded=0;orthogonalLoop=1;jettySize=auto;html=1;fillColor=#e1d5e7;strokeColor=#9673a6;strokeWidth=3;endArrow=none;startFill=1;startArrow=classic;" edge="1" parent="1">
          <mxGeometry relative="1" as="geometry">
            <mxPoint x="873" y="1100" as="targetPoint" />
            <mxPoint x="970" y="1100" as="sourcePoint" />
          </mxGeometry>
        </mxCell>
        <mxCell id="TG-YVFUVCGgv4PHO8d8e-382" style="edgeStyle=orthogonalEdgeStyle;rounded=0;orthogonalLoop=1;jettySize=auto;html=1;fillColor=#d5e8d4;strokeColor=#82b366;strokeWidth=3;endArrow=none;startFill=1;startArrow=classic;" edge="1" parent="1">
          <mxGeometry relative="1" as="geometry">
            <mxPoint x="873" y="1130" as="targetPoint" />
            <mxPoint x="970" y="1130" as="sourcePoint" />
          </mxGeometry>
        </mxCell>
        <mxCell id="TG-YVFUVCGgv4PHO8d8e-383" style="edgeStyle=orthogonalEdgeStyle;rounded=0;orthogonalLoop=1;jettySize=auto;html=1;fillColor=#d5e8d4;strokeColor=#82b366;strokeWidth=3;endArrow=none;startFill=1;startArrow=classic;" edge="1" parent="1">
          <mxGeometry relative="1" as="geometry">
            <mxPoint x="873" y="1160" as="targetPoint" />
            <mxPoint x="970" y="1160" as="sourcePoint" />
          </mxGeometry>
        </mxCell>
        <mxCell id="TG-YVFUVCGgv4PHO8d8e-384" style="edgeStyle=orthogonalEdgeStyle;rounded=0;orthogonalLoop=1;jettySize=auto;html=1;fillColor=#e1d5e7;strokeColor=#9673a6;strokeWidth=3;endArrow=none;startFill=1;startArrow=classic;" edge="1" parent="1">
          <mxGeometry relative="1" as="geometry">
            <mxPoint x="872.5" y="1190" as="targetPoint" />
            <mxPoint x="969.5" y="1190" as="sourcePoint" />
          </mxGeometry>
        </mxCell>
        <mxCell id="TG-YVFUVCGgv4PHO8d8e-385" value="QBCS1_B" style="text;html=1;align=center;verticalAlign=middle;whiteSpace=wrap;rounded=0;fontColor=#A680B8;fontStyle=1;fontSize=14;" vertex="1" parent="1">
          <mxGeometry x="969" y="1090" width="92" height="20" as="geometry" />
        </mxCell>
        <mxCell id="TG-YVFUVCGgv4PHO8d8e-386" value="QBCS0_B" style="text;html=1;align=center;verticalAlign=middle;whiteSpace=wrap;rounded=0;fontColor=#97D077;fontStyle=1;fontSize=14;" vertex="1" parent="1">
          <mxGeometry x="971" y="1120" width="92" height="20" as="geometry" />
        </mxCell>
        <mxCell id="TG-YVFUVCGgv4PHO8d8e-387" value="QACS0_B" style="text;html=1;align=center;verticalAlign=middle;whiteSpace=wrap;rounded=0;fontColor=#97D077;fontStyle=1;fontSize=14;" vertex="1" parent="1">
          <mxGeometry x="971" y="1150" width="92" height="20" as="geometry" />
        </mxCell>
        <mxCell id="TG-YVFUVCGgv4PHO8d8e-388" value="QACS1_B" style="text;html=1;align=center;verticalAlign=middle;whiteSpace=wrap;rounded=0;fontColor=#A680B8;fontStyle=1;fontSize=14;" vertex="1" parent="1">
          <mxGeometry x="969" y="1180" width="92" height="20" as="geometry" />
        </mxCell>
        <mxCell id="TG-YVFUVCGgv4PHO8d8e-389" value="BACK - TOP DIE" style="text;html=1;align=center;verticalAlign=middle;whiteSpace=wrap;rounded=0;fontStyle=1;fontSize=19;" vertex="1" parent="1">
          <mxGeometry x="-360.74" y="1085" width="160" height="30" as="geometry" />
        </mxCell>
        <mxCell id="TG-YVFUVCGgv4PHO8d8e-390" value="FRONT - TOP DIE" style="text;html=1;align=center;verticalAlign=middle;whiteSpace=wrap;rounded=0;fontStyle=1;fontSize=19;" vertex="1" parent="1">
          <mxGeometry x="-360.74" y="1115" width="160" height="30" as="geometry" />
        </mxCell>
        <mxCell id="TG-YVFUVCGgv4PHO8d8e-391" value="FRONT - BOTTOM DIE" style="text;html=1;align=center;verticalAlign=middle;whiteSpace=wrap;rounded=0;fontStyle=1;fontSize=19;" vertex="1" parent="1">
          <mxGeometry x="-390.74" y="1145" width="220" height="30" as="geometry" />
        </mxCell>
        <mxCell id="TG-YVFUVCGgv4PHO8d8e-392" value="BACK - BOTTOM DIE" style="text;html=1;align=center;verticalAlign=middle;whiteSpace=wrap;rounded=0;fontStyle=1;fontSize=19;" vertex="1" parent="1">
          <mxGeometry x="-385.74" y="1175" width="210" height="30" as="geometry" />
        </mxCell>
        <mxCell id="TG-YVFUVCGgv4PHO8d8e-393" value="&lt;div&gt;&lt;span style=&quot;background-color: initial;&quot;&gt;DCS1_B_n&lt;/span&gt;&lt;br&gt;&lt;/div&gt;" style="text;html=1;align=center;verticalAlign=middle;whiteSpace=wrap;rounded=0;fontColor=#9673a6;fontStyle=1;fontSize=14;textOpacity=50;" vertex="1" parent="1">
          <mxGeometry x="190" y="1440" width="90" height="20" as="geometry" />
        </mxCell>
        <mxCell id="TG-YVFUVCGgv4PHO8d8e-394" value="&lt;div&gt;&lt;span style=&quot;background-color: initial;&quot;&gt;DCS1_B_n&lt;/span&gt;&lt;br&gt;&lt;/div&gt;" style="text;html=1;align=center;verticalAlign=middle;whiteSpace=wrap;rounded=0;fontColor=#9673a6;fontStyle=1;fontSize=14;" vertex="1" parent="1">
          <mxGeometry x="815" y="1440" width="90" height="20" as="geometry" />
        </mxCell>
      </root>
    </mxGraphModel>
  </diagram>
</mxfile>
